<svg version="1.1" id="Layer_1" xmlns="http://www.w3.org/2000/svg" xmlns:xlink="http://www.w3.org/1999/xlink" x="0px" y="0px"
	 width="100%" viewBox="320 320 400 400" enable-background="new 0 0 1024 1024" xml:space="preserve">
<path fill="#AF5608" opacity="1.000000" stroke="none" 
	d="
M725.926880,680.301819 
	C715.415955,682.891724 704.897644,685.451843 694.396423,688.080505 
	C685.269348,690.365295 676.184631,692.822083 667.040100,695.033142 
	C654.233032,698.129761 641.372803,701.006592 628.563599,704.094727 
	C617.890381,706.667786 607.270081,709.459656 596.604370,712.064758 
	C581.458984,715.763977 566.209961,719.071472 551.163635,723.133240 
	C539.705200,726.226440 528.349121,729.520447 516.541565,731.156494 
	C513.056702,731.639343 509.796082,733.741272 505.163177,735.614563 
	C507.777863,735.843811 509.006836,735.951538 510.723022,736.451172 
	C513.801147,736.619446 516.392029,736.395813 518.982910,736.172241 
	C520.362610,736.117798 521.742371,736.063354 523.737488,736.212585 
	C525.253113,736.252869 526.153259,736.089539 527.053467,735.926147 
	C529.067932,735.958923 531.082458,735.991699 533.837769,736.270325 
	C550.600708,736.712891 566.622253,737.005920 582.644897,737.083069 
	C604.623962,737.188965 626.604126,737.083130 648.583374,737.176331 
	C654.211182,737.200195 659.839417,737.879028 665.463684,737.828918 
	C683.083923,737.671692 700.701782,737.266235 718.321899,737.077515 
	C720.831421,737.050659 723.348022,737.691772 725.908264,738.357300 
	C725.935303,739.138733 725.915405,739.586670 725.646973,740.359009 
	C725.265564,746.792175 725.132751,752.900940 724.671509,758.942627 
	C723.402466,758.476990 722.461792,758.078369 721.199585,757.543579 
	C721.116882,759.044678 721.039673,760.030090 721.012024,761.016968 
	C720.848572,766.857483 719.563599,767.840820 713.630188,766.713013 
	C712.172180,766.435974 710.686646,766.042908 709.225525,766.087708 
	C701.505127,766.324036 693.787109,766.986450 686.070801,766.950684 
	C637.042542,766.723755 588.015320,766.286682 538.987061,766.081360 
	C528.763550,766.038513 518.537415,766.932678 508.312012,766.941833 
	C491.348297,766.957092 474.384216,766.605225 457.420288,766.407288 
	C449.454651,766.314331 441.488098,766.098389 433.523560,766.156677 
	C423.970795,766.226501 414.420380,766.651978 404.867767,766.701660 
	C391.763031,766.769775 378.655548,766.732056 365.552979,766.513855 
	C361.787445,766.451172 357.443268,766.653076 354.391571,764.922485 
	C346.458618,760.423706 338.188843,760.760620 329.698059,761.339966 
	C329.675598,761.367981 329.604004,761.373596 329.662537,761.007446 
	C328.523712,758.610352 327.326385,756.579285 326.129028,754.548279 
	C322.522217,748.069885 316.879883,743.833557 309.393127,742.035645 
	C309.031311,741.663513 308.947693,741.391846 308.981903,740.682983 
	C308.484009,737.946167 309.533813,734.690369 305.501862,734.430298 
	C305.475677,734.431458 305.431030,734.403992 305.573395,733.953491 
	C305.145874,726.333740 304.575989,719.164429 304.389160,711.994263 
	C306.296539,710.749084 308.329163,709.792969 309.233948,708.197327 
	C310.856232,705.336426 311.780670,702.082825 313.033081,699.008240 
	C314.332550,695.818054 317.549744,695.105347 320.154663,697.360596 
	C321.394623,698.434143 322.593384,699.634827 324.012482,700.407410 
	C328.820770,703.024963 329.962616,697.752075 332.646271,695.976440 
	C333.399750,695.477905 333.391693,691.922302 332.833160,691.655884 
	C329.185547,689.916382 328.993805,686.333801 327.946808,683.309387 
	C327.297943,681.434937 326.906830,677.657654 327.342102,677.509888 
	C330.653137,676.386047 333.721771,672.017517 337.809082,676.550110 
	C342.095856,681.303894 353.941376,682.785461 359.245087,679.622253 
	C359.894684,679.234802 360.378632,678.473999 360.786743,677.794556 
	C362.254944,675.350281 363.657776,672.866638 365.036438,670.482300 
	C363.369965,670.003723 360.320190,669.455383 357.605927,668.188293 
	C356.512756,667.678040 356.154694,665.593018 355.462067,664.224731 
	C356.942413,663.649292 358.383026,662.798096 359.914490,662.577332 
	C361.388336,662.364929 363.600555,663.524902 364.372620,662.834351 
	C367.953033,659.632019 370.383881,662.528931 372.584747,664.335938 
	C374.125092,665.600647 374.725464,668.010132 375.745636,669.908386 
	C375.391388,670.609253 375.037109,671.310120 374.682861,672.010986 
	C380.645813,672.208984 386.624451,672.704285 392.560547,672.391785 
	C394.008392,672.315491 395.169556,669.403198 396.744781,668.149475 
	C397.676025,667.408264 399.143799,667.280701 400.400116,667.021606 
	C402.663483,666.554749 405.004700,666.389648 407.215027,665.755554 
	C413.446198,663.967773 419.493896,662.055847 426.248474,663.763733 
	C429.061554,664.474915 432.391663,662.962524 435.506866,662.707764 
	C438.631958,662.452148 441.893402,661.945251 444.896698,662.543884 
	C450.116821,663.584412 454.456238,661.354614 454.050812,657.258057 
	C455.777191,656.103455 457.451141,654.983887 459.582214,653.558533 
	C457.018341,651.510803 451.692108,651.888916 455.305328,646.870972 
	C456.812408,647.917542 458.091217,648.805542 458.199341,648.880676 
	C464.204285,647.610840 469.656036,644.762329 473.839386,646.046326 
	C478.093597,647.352173 481.633484,649.788025 486.349182,648.101685 
	C487.253204,647.778381 488.546051,648.633667 489.679077,648.834839 
	C490.932068,649.057251 492.474609,649.692139 493.431183,649.218567 
	C501.428772,645.259399 510.212921,642.268555 514.318665,633.163879 
	C514.732910,632.245300 516.009155,631.674316 516.953918,631.045044 
	C518.811646,629.807678 520.717529,628.642761 522.953857,627.225891 
	C526.481750,629.951965 529.172302,627.941223 531.732849,624.811523 
	C534.642700,621.254883 538.150330,618.118164 540.631836,614.300720 
	C542.872620,610.853516 547.292297,606.887695 544.326721,602.703918 
	C541.374573,598.539062 543.010681,595.861328 544.539062,592.332031 
	C548.318176,593.285950 551.639832,593.297424 551.924072,588.460938 
	C552.068665,585.999451 552.094727,583.376587 551.412598,581.049988 
	C549.374512,574.098877 549.162964,567.372803 552.129578,560.603699 
	C553.642883,557.150635 551.551880,551.765198 548.302795,551.177673 
	C543.988708,550.397644 544.226318,547.791748 544.576111,544.591125 
	C544.804688,542.499451 545.269958,539.889282 544.312256,538.309875 
	C540.817261,532.546143 533.194763,529.710938 532.555786,521.834229 
	C527.154785,520.997864 526.189087,515.192383 522.321472,512.396362 
	C520.308105,510.940796 516.836243,507.285217 519.243408,503.162018 
	C522.390015,505.498566 525.223511,507.704620 528.048218,509.935669 
	C528.039368,509.960663 528.089294,509.942902 527.739990,510.167419 
	C529.623779,512.584412 531.856873,514.776917 534.053833,516.973511 
	C534.017761,516.977600 534.018311,516.904907 533.924561,517.296021 
	C534.251099,517.777588 534.671387,517.867920 535.051514,517.978271 
	C535.011353,517.998169 535.071594,517.931763 534.769836,518.201111 
	C536.676819,520.973022 538.885498,523.475525 541.058228,525.979431 
	C541.022217,525.980774 541.032166,525.909424 540.886475,526.260376 
	C541.526306,527.401489 542.311890,528.191650 543.061523,528.982300 
	C543.025574,528.982727 543.040710,528.912415 542.861938,529.256104 
	C546.340332,536.617798 549.997498,543.635803 553.785034,551.013672 
	C554.224976,552.832153 554.534607,554.290833 554.548462,555.984253 
	C556.756104,566.057678 556.750061,575.966309 555.047485,586.349426 
	C554.529480,589.852661 554.552673,593.117798 553.482605,595.973267 
	C543.107727,623.656677 522.454590,641.200134 495.814178,651.756409 
	C481.949005,657.250366 467.214630,660.620728 452.759521,664.531372 
	C443.326324,667.083374 433.742218,669.168457 424.129974,670.944336 
	C413.065247,672.988586 401.862946,674.279724 390.779327,676.232300 
	C379.136993,678.283386 367.630920,681.185181 355.945129,682.893188 
	C340.045288,685.217224 330.249512,701.992493 333.818695,715.808594 
	C335.282715,718.702393 336.688995,721.340576 338.059570,723.980835 
	C338.023865,723.982971 338.039093,723.913086 337.865936,724.244446 
	C340.498474,727.237915 343.304199,729.900024 345.942566,732.870728 
	C344.654785,734.481079 343.681366,735.726257 346.533020,735.967834 
	C348.834503,736.162720 351.136536,736.631042 353.430481,736.585388 
	C361.517456,736.424377 369.601166,736.097717 377.685394,735.814270 
	C377.997589,735.803345 378.298706,735.578735 378.611725,735.473755 
	C384.123627,733.625793 389.666473,731.864624 395.140808,729.911377 
	C400.454163,728.015625 405.697510,725.923523 410.986145,723.951050 
	C411.000702,723.984436 410.937347,723.948425 411.341858,723.971130 
	C414.003662,724.068359 416.401215,724.674927 418.493469,724.123413 
	C426.666931,721.968689 434.637482,718.953613 442.881744,717.179871 
	C454.857330,714.603210 466.802734,711.292908 480.131683,712.493713 
	C478.710449,711.153137 477.848297,710.339966 476.568390,709.132690 
	C485.762390,707.257019 494.904144,706.587646 503.053986,703.389954 
	C511.060883,700.248474 519.198120,699.371155 527.387146,697.913452 
	C529.256409,697.580750 531.007080,696.502197 532.770691,695.677673 
	C534.540039,694.850403 536.257385,693.911743 538.058899,693.337524 
	C538.532898,694.515381 539.488831,695.957825 539.278442,696.154907 
	C534.551636,700.581482 539.517212,701.052917 541.799988,702.844055 
	C547.048828,706.962463 552.088501,711.347961 557.352417,715.446045 
	C558.579468,716.401306 560.468872,717.315613 561.870544,717.093567 
	C567.358948,716.223938 572.823486,715.072876 578.183838,713.611633 
	C579.626038,713.218506 581.552246,711.421326 581.639343,710.157104 
	C581.721619,708.963745 579.848999,707.401245 578.538269,706.385986 
	C572.209045,701.483887 565.671997,696.844788 559.441040,691.824036 
	C557.150085,689.977966 555.630493,687.088074 552.175171,687.696533 
	C553.582825,686.634216 554.844604,685.911865 556.052612,685.108704 
	C560.985779,681.828979 568.376526,682.499817 571.137878,675.561768 
	C571.495972,674.661865 573.658081,674.479980 575.193481,674.237427 
	C575.966187,675.112671 576.633484,675.648621 577.077087,676.330078 
	C580.259827,681.219727 583.229248,686.259949 586.636230,690.985779 
	C587.897949,692.735962 590.111206,693.831116 591.966614,695.114990 
	C594.534058,696.891724 597.647278,698.132568 599.685791,700.369446 
	C604.317627,705.451904 609.760315,705.682678 616.006287,704.926453 
	C622.880127,704.094116 626.481873,699.612915 629.473816,694.979126 
	C623.900635,688.897583 618.449097,682.948792 613.386108,676.987427 
	C622.180542,674.981567 630.586426,672.988342 639.299072,671.054016 
	C639.297791,672.888672 638.989624,674.664429 638.529541,677.316162 
	C644.218384,677.941162 647.144409,684.280518 654.200867,684.581421 
	C660.370544,684.844543 666.329956,688.529663 672.564453,689.406006 
	C675.786987,689.858948 680.890381,688.508118 682.493103,686.161621 
	C684.828491,682.742554 680.824829,680.163513 677.816284,678.210999 
	C675.468140,676.687134 673.044067,675.195496 670.993835,673.318176 
	C668.155884,670.719604 665.637024,667.772583 663.233215,664.724487 
	C667.657410,662.995056 671.829895,661.515869 676.011719,660.371704 
	C676.073425,661.032654 676.006348,661.522278 676.195679,661.660339 
	C681.064331,665.210693 686.285400,668.356018 690.778076,672.326538 
	C698.453735,679.110168 706.353333,684.118713 716.949463,679.453491 
	C718.483276,678.778198 720.855408,677.089539 720.726135,676.165588 
	C720.462402,674.280640 719.015625,672.348755 717.595764,670.881897 
	C714.525574,667.709839 710.592224,665.229187 708.068848,661.708313 
	C704.934875,657.335449 700.975647,655.085754 696.019714,653.581787 
	C696.285645,648.781738 696.548889,644.402954 696.787781,640.022827 
	C696.879395,638.343750 696.915283,636.661621 697.293457,635.129700 
	C699.782959,636.766785 702.724976,637.784058 703.980225,639.834045 
	C707.384583,645.394165 709.923767,651.477661 713.156433,657.154053 
	C713.920227,658.495117 716.169434,659.896179 717.539368,659.722717 
	C718.823914,659.560059 720.210449,657.507935 720.876404,655.990723 
	C721.428284,654.733276 720.999512,653.044006 720.999512,651.546021 
	C721.001343,543.691833 721.002502,435.837677 721.336304,327.985229 
	C722.112122,327.988678 722.555420,327.990387 722.999390,328.418427 
	C723.627319,331.041718 721.242920,334.621826 725.882935,335.466919 
	C725.908569,344.955017 725.878784,353.977600 725.456360,363.029419 
	C721.923279,366.030640 722.109741,371.629913 725.580688,374.298431 
	C725.774902,377.749573 725.815613,380.874908 725.487244,384.022278 
	C721.956482,385.894989 721.963989,387.540558 725.587952,389.271729 
	C725.779907,390.720978 725.820374,391.860352 725.474060,393.027100 
	C721.775513,396.108856 722.080627,399.254120 725.908447,401.466248 
	C725.922485,412.955139 725.886230,423.977875 725.453857,435.030670 
	C724.401794,435.683197 723.198853,436.287048 723.176941,436.931030 
	C723.007690,441.909027 722.950439,446.900238 723.180542,451.872406 
	C723.215210,452.621002 724.922302,453.292236 725.903687,454.372986 
	C725.919067,455.498047 725.886658,456.249329 725.458862,457.030212 
	C720.585144,460.772278 723.997437,465.170197 724.241211,469.373474 
	C724.780823,467.935089 725.320435,466.496735 725.909180,465.520996 
	C725.928101,477.989502 725.897949,489.995361 725.507812,502.020386 
	C724.474121,502.734375 723.800415,503.429230 723.126648,504.124054 
	C724.040894,504.748962 724.955139,505.373840 725.919678,506.465057 
	C725.955566,564.721558 725.941223,622.511658 725.926880,680.301819 
M723.713684,646.421692 
	C724.050720,646.013367 724.410706,645.619568 724.691345,645.175598 
	C724.721497,645.127991 724.290344,644.788574 724.073120,644.584534 
	C723.823792,645.065735 723.574463,645.546936 723.713684,646.421692 
M410.829559,668.471741 
	C410.895416,668.813965 410.961304,669.156189 411.027191,669.498413 
	C411.104248,669.158325 411.181305,668.818176 410.829559,668.471741 
z"/>
<path fill="#A85A15" opacity="1.000000" stroke="none" 
	d="
M304.006104,711.995117 
	C304.575989,719.164429 305.145874,726.333740 305.373230,733.708008 
	C304.327728,732.934265 303.624725,731.955444 302.921753,730.976685 
	C302.921753,730.976685 303.009125,730.913208 302.832336,730.982178 
	C302.371948,730.891663 302.239746,730.649719 302.258881,730.325256 
	C301.481628,725.491028 300.704407,720.656738 299.973877,714.963318 
	C300.006989,695.152222 300.009338,676.200256 299.975922,657.248352 
	C299.926971,629.489380 299.852386,601.730408 299.837494,573.507080 
	C299.908722,512.984558 299.936859,452.926422 299.943268,392.868256 
	C299.943787,387.884674 299.797607,382.901062 299.773468,377.467102 
	C300.912109,369.195404 301.996857,361.374115 303.081573,353.552795 
	C303.081573,353.552795 302.999451,353.467957 303.375671,353.236206 
	C304.476318,350.646423 305.200745,348.288330 305.925171,345.930267 
	C305.925171,345.930267 305.989990,345.999359 306.304871,346.142944 
	C307.397980,344.495392 308.176178,342.704285 308.954407,340.913177 
	C308.954407,340.913177 308.971893,340.987732 309.366943,340.969116 
	C309.811707,340.280273 309.861389,339.610077 309.911102,338.939880 
	C309.911102,338.939880 310.000000,338.998779 310.331848,339.179260 
	C310.764526,338.875305 310.865417,338.390900 310.966309,337.906464 
	C310.966309,337.906464 310.980499,337.977753 311.313446,338.139160 
	C312.397766,336.849670 313.149139,335.398743 313.900482,333.947784 
	C313.900482,333.947784 313.990051,334.004639 314.354950,334.200867 
	C314.795349,333.900909 314.870880,333.404785 314.946411,332.908630 
	C314.946411,332.908630 314.992737,332.994507 315.304443,333.274078 
	C316.053680,332.677399 316.491211,331.801117 316.928711,330.924866 
	C316.928711,330.924866 316.992371,330.994141 317.361664,331.180359 
	C317.802704,330.881134 317.874451,330.395660 317.946167,329.910187 
	C317.946167,329.910187 318.001221,329.997559 318.193359,330.333435 
	C319.574982,329.416595 320.764465,328.163910 321.953949,326.911224 
	C321.953949,326.911224 321.995026,326.989929 322.256348,327.227661 
	C323.018097,326.945923 323.518555,326.426483 324.019043,325.907074 
	C324.019043,325.907074 324.006348,326.004211 324.328491,326.047424 
	C325.747101,325.032135 326.843567,323.973602 327.940063,322.915100 
	C327.940063,322.915100 327.999939,322.993866 328.282227,323.247833 
	C329.035461,322.965454 329.506409,322.429138 329.977356,321.892822 
	C329.977356,321.892822 329.990417,321.972382 330.261047,322.239166 
	C333.986328,321.062592 337.440979,319.619202 340.895599,318.175842 
	C346.096863,316.844849 351.298096,315.513885 356.992188,314.217072 
	C357.485077,314.251221 357.675751,314.278259 357.675751,314.278259 
	C357.675751,314.278259 357.902649,314.163269 357.902649,314.163269 
	C357.902649,314.163269 358.269257,313.961334 358.915161,314.071472 
	C365.793640,312.816345 372.026245,311.451050 378.258820,310.085754 
	C382.473511,309.074890 386.688232,308.064026 391.723816,307.184875 
	C398.711395,305.847931 404.878113,304.379303 411.044800,302.910645 
	C411.044800,302.910645 411.011444,303.006256 411.372681,303.149414 
	C418.009949,301.942017 424.285980,300.591461 430.562042,299.240875 
	C436.357605,297.853607 442.153168,296.466370 448.775146,295.161682 
	C455.507080,293.851898 461.412659,292.459503 467.318207,291.067139 
	C467.318207,291.067139 467.422668,290.967743 467.921844,291.128723 
	C474.365967,289.887695 480.310944,288.485657 486.255890,287.083618 
	C486.255890,287.083618 486.400421,286.940033 486.928284,287.107910 
	C493.669128,285.890717 499.882141,284.505615 506.095123,283.120544 
	C506.095123,283.120544 506.373993,282.948944 506.942657,283.072205 
	C508.347168,283.162170 509.183014,283.128876 509.916931,283.441650 
	C504.210449,285.523926 498.605835,287.260193 492.586609,288.998840 
	C487.514709,290.119781 482.817535,291.097717 478.213135,292.402985 
	C474.745117,293.386108 471.396027,294.788818 467.530151,296.001404 
	C456.961426,295.387085 447.359192,297.909088 437.729950,300.495789 
	C434.312683,301.413788 432.067810,304.067810 427.852783,304.338715 
	C415.809906,305.112732 403.148468,304.569824 392.724548,312.693695 
	C392.171021,313.125092 391.111328,312.961700 390.285187,312.979523 
	C385.827271,313.075958 381.301239,312.681000 376.925293,313.320923 
	C369.326019,314.432220 361.355957,314.273590 354.592255,318.995697 
	C353.366302,319.851562 351.423431,319.663483 349.820465,319.999908 
	C345.792969,320.845215 341.554352,321.183685 337.801636,322.711121 
	C333.256012,324.561340 328.996826,327.231812 324.863617,329.930237 
	C322.745178,331.313263 321.171051,333.530090 318.755554,335.971954 
	C315.235779,340.428558 311.157776,345.307617 307.404236,350.424652 
	C303.659119,355.530243 304.115417,361.757385 304.095612,367.551178 
	C303.927307,416.780853 304.008698,466.011383 304.012024,515.241638 
	C304.012909,528.097717 303.880615,540.955261 304.025757,553.809631 
	C304.251007,573.762512 304.968842,593.713989 304.924438,613.664795 
	C304.851532,646.442139 304.335358,679.218384 304.006104,711.995117 
z"/>
<path fill="#A85A15" opacity="1.000000" stroke="none" 
	d="
M638.992249,670.995117 
	C630.586426,672.988342 622.180542,674.981567 613.096680,677.078796 
	C609.465271,674.104736 609.296204,670.265503 611.616272,667.358215 
	C614.015564,664.351624 615.792603,660.806702 618.394043,658.011169 
	C625.610107,650.256592 626.473145,640.895325 626.084351,631.039734 
	C626.034241,629.769287 626.867126,628.379883 627.539734,627.185669 
	C628.434937,625.596252 630.172729,624.259949 630.491394,622.610657 
	C631.305420,618.397827 631.934753,614.072021 631.937439,609.790955 
	C632.009949,495.520447 631.996338,381.249908 631.985657,266.979340 
	C631.985107,260.954102 631.119995,260.346771 624.394897,261.706451 
	C625.150635,262.587341 625.792236,263.335114 627.214355,264.992676 
	C623.653259,264.992676 621.057800,265.063965 618.467407,264.979675 
	C609.619385,264.691833 600.804382,264.829559 592.387695,267.993530 
	C589.619751,269.034027 587.194275,271.433411 584.400330,271.876953 
	C573.841309,273.553162 563.189819,274.640320 552.587158,276.054565 
	C550.844299,276.287018 549.172791,277.054443 546.128723,277.983521 
	C548.700012,278.817108 549.676453,279.133667 550.652954,279.450256 
	C550.599976,279.632690 550.546997,279.815125 550.493958,279.997559 
	C549.664001,279.997559 548.833984,279.997559 547.564697,279.995483 
	C541.897400,280.441803 536.661499,280.816071 531.443604,281.362122 
	C527.282959,281.797516 523.144104,282.442352 518.636475,282.985657 
	C517.471924,282.564606 516.666565,282.152100 516.183960,281.528809 
	C525.713623,279.251526 534.920593,277.185059 544.127502,275.118622 
	C544.127502,275.118622 544.366455,274.947784 544.942749,275.089661 
	C551.392639,273.860229 557.266174,272.488953 563.139771,271.117645 
	C563.139771,271.117645 563.388489,270.947205 563.967651,271.056824 
	C570.610596,269.845795 576.674377,268.525146 582.738220,267.204498 
	C587.139648,266.158295 591.541138,265.112091 596.768677,264.162994 
	C599.384766,263.947449 601.176147,263.643127 602.964355,263.320831 
	C613.009216,261.510498 623.053345,259.695862 633.039917,258.355743 
	C632.988037,375.833893 632.990906,492.838989 633.035034,609.844055 
	C633.035583,611.249329 633.566284,612.654358 633.849487,614.059509 
	C633.885071,629.063354 629.465942,642.967468 623.178833,656.354797 
	C620.658630,661.721313 617.658997,666.862732 614.382324,673.040466 
	C622.686462,670.948730 629.977905,669.112061 638.027466,667.203430 
	C642.202148,666.468994 645.618713,665.806641 648.933472,665.482666 
	C647.087341,666.567261 645.289490,667.210999 643.614380,668.089050 
	C642.007507,668.931458 640.527832,670.016663 638.992249,670.995117 
z"/>
<path fill="#9C5518" opacity="1.000000" stroke="none" 
	d="
M676.002441,660.036621 
	C671.829895,661.515869 667.657410,662.995056 662.862427,664.727600 
	C661.497192,664.980896 660.754517,664.980896 659.851074,664.657227 
	C659.348511,663.681641 659.006531,663.029724 658.644409,662.346680 
	C658.624146,662.315552 658.556213,662.285645 658.556213,662.285645 
	C667.614441,659.829346 676.671204,657.367554 685.732605,654.922852 
	C687.131165,654.545471 688.551086,654.246826 690.724854,653.981628 
	C691.642456,653.671753 691.796387,653.291992 691.950317,652.912231 
	C691.950256,652.912231 691.982971,652.981689 692.413696,653.037354 
	C692.903748,652.548523 692.963074,652.004028 693.022461,651.459595 
	C693.022461,651.459595 692.977844,651.436707 693.342468,651.109253 
	C693.803894,648.959473 693.985046,647.137146 693.985352,645.314880 
	C693.996704,583.852661 693.986633,522.390442 693.989197,460.928192 
	C693.990662,426.951477 694.009094,392.974762 694.402954,359.112885 
	C695.192444,361.240845 695.951416,363.253510 695.953857,365.267120 
	C696.019287,418.660156 695.938416,472.053436 696.052124,525.446289 
	C696.083130,540.007019 696.890320,554.566162 696.915405,569.126770 
	C696.937134,581.748901 696.355896,594.372131 696.030029,607.329834 
	C696.025757,608.111450 696.032593,608.558167 696.030762,609.473022 
	C696.340271,618.287720 696.658386,626.634277 696.976501,634.980896 
	C696.915283,636.661621 696.879395,638.343750 696.787781,640.022827 
	C696.548889,644.402954 696.285645,648.781738 695.913391,653.949829 
	C689.197266,656.504639 682.599854,658.270630 676.002441,660.036621 
z"/>
<path fill="#F2E2CA" opacity="1.000000" stroke="none" 
	d="
M726.865906,768.952637 
	C725.600098,769.303955 724.334473,769.962280 723.068542,769.962891 
	C598.964783,770.020264 474.860931,770.061707 350.757355,769.902283 
	C346.245544,769.896484 341.736267,767.886719 337.205322,766.257263 
	C337.184814,765.703613 337.456543,765.295166 337.838318,765.366272 
	C347.411469,766.590820 356.599670,768.715515 365.794769,768.745972 
	C448.227814,769.019165 530.662109,768.945251 613.096008,768.927246 
	C649.396667,768.919312 685.697388,768.804871 722.377136,768.808105 
	C723.781067,768.843201 724.805908,768.808899 726.088318,768.826294 
	C726.519226,768.902832 726.692566,768.927734 726.865906,768.952637 
z"/>
<path fill="#C29361" opacity="1.000000" stroke="none" 
	d="
M633.932861,613.589294 
	C633.566284,612.654358 633.035583,611.249329 633.035034,609.844055 
	C632.990906,492.838989 632.988037,375.833893 633.268433,258.336151 
	C633.554688,257.843475 633.999084,257.957672 633.999084,257.957672 
	C634.256042,264.777618 634.578552,271.596130 634.725342,278.418427 
	C634.763489,280.190155 634.026978,281.973633 634.026550,283.751801 
	C633.997925,393.540894 634.008850,503.329987 633.932861,613.589294 
z"/>
<path fill="#CCA26F" opacity="1.000000" stroke="none" 
	d="
M726.321777,680.064697 
	C725.941223,622.511658 725.955566,564.721558 725.972534,506.067261 
	C725.939392,504.135864 725.903625,503.068542 725.867798,502.001251 
	C725.897949,489.995361 725.928101,477.989502 725.960022,465.073212 
	C725.925903,461.775421 725.890076,459.388000 725.854248,457.000610 
	C725.886658,456.249329 725.919067,455.498047 725.957825,453.923981 
	C725.930847,450.386475 725.897583,447.671783 725.909424,444.639709 
	C725.923645,443.897186 725.892822,443.472046 725.911133,442.601807 
	C725.923584,439.771362 725.886841,437.385986 725.849976,435.000580 
	C725.886230,423.977875 725.922485,412.955139 725.962402,401.024567 
	C725.931030,397.744354 725.895935,395.372040 725.860840,392.999695 
	C725.820374,391.860352 725.779907,390.720978 725.678101,388.932495 
	C725.696655,386.855682 725.776489,385.427948 725.856323,384.000244 
	C725.815613,380.874908 725.774902,377.749573 725.677856,373.912842 
	C725.697327,369.800995 725.773132,366.400574 725.848938,363.000153 
	C725.878784,353.977600 725.908569,344.955017 725.938110,335.026642 
	C725.930359,331.763550 725.922974,329.406250 726.038330,326.761475 
	C726.443542,326.205811 726.726013,325.937622 727.008545,325.669464 
	C727.005493,441.905487 727.003784,558.141479 726.987793,674.377502 
	C726.987488,676.194214 726.810974,678.010925 726.321777,680.064697 
z"/>
<path fill="#F2E2CA" opacity="1.000000" stroke="none" 
	d="
M542.909424,734.947693 
	C544.399536,734.611938 545.889465,733.983765 547.379761,733.982727 
	C605.812256,733.941956 664.244812,733.950378 722.677246,734.013672 
	C724.109863,734.015198 725.541626,734.707275 726.686890,735.516846 
	C726.399963,735.956482 725.973755,736.031677 725.516357,735.926514 
	C723.399658,735.782471 721.740479,735.711121 720.081116,735.709351 
	C665.744019,735.650085 611.406860,735.597412 556.853394,735.429199 
	C556.295105,735.230408 555.983765,735.294739 555.363098,735.527832 
	C554.116150,735.518005 553.209045,735.487854 551.840088,735.335266 
	C548.555237,735.124451 545.732300,735.036072 542.909424,734.947693 
z"/>
<path fill="#E3C89B" opacity="1.000000" stroke="none" 
	d="
M694.019897,358.998047 
	C694.009094,392.974762 693.990662,426.951477 693.989197,460.928192 
	C693.986633,522.390442 693.996704,583.852661 693.985352,645.314880 
	C693.985046,647.137146 693.803894,648.959473 693.359863,651.091187 
	C693.023987,556.295471 693.033508,461.190338 693.050049,366.085175 
	C693.051331,358.997925 693.074890,359.004456 685.869629,359.000458 
	C677.208557,358.995667 668.547546,358.978363 659.415161,358.730011 
	C658.943787,358.493561 658.945007,358.166534 659.325745,358.107788 
	C660.471863,357.987274 661.237244,357.925446 662.467773,357.923828 
	C670.730713,357.975922 678.529724,357.883087 686.325317,358.007721 
	C688.894775,358.048798 691.455322,358.651917 694.019897,358.998047 
z"/>
<path fill="#9C5518" opacity="1.000000" stroke="none" 
	d="
M557.069763,735.543823 
	C611.406860,735.597412 665.744019,735.650085 720.081116,735.709351 
	C721.740479,735.711121 723.399658,735.782471 725.519958,736.259521 
	C725.941101,737.139709 725.901245,737.581787 725.861389,738.023804 
	C723.348022,737.691772 720.831421,737.050659 718.321899,737.077515 
	C700.701782,737.266235 683.083923,737.671692 665.463684,737.828918 
	C659.839417,737.879028 654.211182,737.200195 648.583374,737.176331 
	C626.604126,737.083130 604.623962,737.188965 582.644897,737.083069 
	C566.622253,737.005920 550.600708,736.712891 534.268433,736.235596 
	C536.083069,735.655945 538.207886,735.356750 541.066772,735.364563 
	C545.301270,735.600281 548.801636,735.528992 552.302002,735.457642 
	C553.209045,735.487854 554.116150,735.518005 555.580078,735.641846 
	C556.137024,735.735596 556.626953,735.754395 556.626953,735.754395 
	C556.626953,735.754395 557.069763,735.543823 557.069763,735.543823 
z"/>
<path fill="#E3C89B" opacity="1.000000" stroke="none" 
	d="
M299.719574,377.917480 
	C299.797607,382.901062 299.943787,387.884674 299.943268,392.868256 
	C299.936859,452.926422 299.908722,512.984558 299.682892,573.503662 
	C299.479523,573.964661 299.170013,573.966187 299.169983,573.966187 
	C299.120178,537.369690 299.054901,500.773163 299.025513,464.176636 
	C299.002686,435.728973 299.024536,407.281281 299.247803,378.353760 
	C299.469147,377.873962 299.719574,377.917480 299.719574,377.917480 
z"/>
<path fill="#9C5518" opacity="1.000000" stroke="none" 
	d="
M662.002625,357.863647 
	C661.237244,357.925446 660.471863,357.987274 658.990295,357.827026 
	C658.274109,346.995880 658.274109,336.386810 658.274109,325.387329 
	C661.685852,325.387329 664.797058,325.387329 668.277649,325.573517 
	C679.045471,325.804199 689.444214,325.918091 699.842102,325.863464 
	C704.922974,325.836792 710.002136,325.496490 715.507568,325.284119 
	C717.918823,325.278625 719.904541,325.287231 722.011597,325.432556 
	C722.460876,325.506287 722.788879,325.443268 723.502258,325.377838 
	C724.906494,325.400208 725.925476,325.424927 726.944397,325.449677 
	C726.944397,325.449677 727.094238,325.530823 727.051392,325.600159 
	C726.726013,325.937622 726.443542,326.205811 725.714661,326.756042 
	C724.511841,327.356140 723.755310,327.674164 722.998779,327.992126 
	C722.555420,327.990387 722.112122,327.988678 721.036621,327.725891 
	C716.305603,327.639832 712.207275,327.947693 708.107666,327.965973 
	C693.632751,328.030457 679.153137,328.193878 664.684509,327.886627 
	C659.897949,327.785004 658.718262,329.449982 658.927063,333.891022 
	C659.307495,341.982391 657.865540,350.263611 662.002625,357.863647 
z"/>
<path fill="#F2E2CA" opacity="1.000000" stroke="none" 
	d="
M726.977295,324.962219 
	C725.925476,325.424927 724.906494,325.400208 723.201721,325.267395 
	C722.307373,325.204834 722.098877,325.250305 721.890320,325.295807 
	C719.904541,325.287231 717.918823,325.278625 715.048218,325.158142 
	C698.745056,325.159943 683.326660,325.273651 667.908264,325.387329 
	C664.797058,325.387329 661.685852,325.387329 658.274109,325.387329 
	C658.274109,336.386810 658.274109,346.995880 658.609558,357.885742 
	C658.945007,358.166534 658.943787,358.493561 658.948608,358.656982 
	C658.151917,356.858185 656.772034,354.930267 656.653259,352.927551 
	C656.228333,345.761902 656.290405,338.568970 656.052856,331.390167 
	C655.856262,325.445709 657.994568,320.973602 664.687317,323.649261 
	C667.413574,324.739166 670.925476,323.929321 674.078186,323.876221 
	C691.086304,323.589844 708.093628,323.253052 725.102478,323.026367 
	C725.731812,323.017944 726.373962,323.970184 726.977295,324.962219 
z"/>
<path fill="#D4B187" opacity="1.000000" stroke="none" 
	d="
M299.085968,574.430908 
	C299.170013,573.966187 299.479523,573.964661 299.634125,573.968018 
	C299.852386,601.730408 299.926971,629.489380 299.975922,657.248352 
	C300.009338,676.200256 300.006989,695.152222 299.971802,714.573364 
	C299.615143,713.867920 299.039398,712.693420 299.038239,711.518433 
	C298.993469,665.977539 299.001129,620.436646 299.085968,574.430908 
z"/>
<path fill="#A85A15" opacity="1.000000" stroke="none" 
	d="
M309.564545,742.168945 
	C316.879883,743.833557 322.522217,748.069885 326.129028,754.548279 
	C327.326385,756.579285 328.523712,758.610352 329.316254,760.903625 
	C328.246582,761.125488 327.581696,761.085083 326.916840,761.044617 
	C326.916840,761.044617 326.986267,761.025757 327.017761,760.685730 
	C325.519592,759.550232 323.989929,758.754761 322.460266,757.959351 
	C322.460236,757.959351 322.492645,757.951782 322.396851,757.571533 
	C321.837646,757.140442 321.374237,757.089539 320.910828,757.038574 
	C320.910828,757.038574 320.981110,757.017578 321.136658,756.712708 
	C320.497559,755.941895 319.702911,755.476013 318.908264,755.010132 
	C318.908264,755.010132 318.993042,755.008362 319.029175,754.702881 
	C317.679871,753.266602 316.294434,752.135803 314.908966,751.005066 
	C314.908966,751.005066 314.997498,751.003662 315.018860,750.710938 
	C314.662598,750.281372 314.285004,750.144653 313.907379,750.007874 
	C313.907379,750.007874 313.990753,750.007935 314.052277,749.667603 
	C313.381989,748.903137 312.650177,748.479004 311.918396,748.054871 
	C311.918396,748.054871 311.992676,748.003601 312.222107,747.723999 
	C311.602020,746.639160 310.752502,745.833984 309.902954,745.028870 
	C309.902954,745.028870 309.976074,745.013123 310.186401,744.715820 
	C310.119354,743.668640 309.841949,742.918762 309.564545,742.168945 
z"/>
<path fill="#F2E2CA" opacity="1.000000" stroke="none" 
	d="
M633.975952,257.533386 
	C633.999084,257.957672 633.554688,257.843475 633.326172,257.863068 
	C623.053345,259.695862 613.009216,261.510498 602.964355,263.320831 
	C601.176147,263.643127 599.384766,263.947449 597.152771,264.171356 
	C599.271729,263.048645 601.751404,261.664764 604.409180,261.047089 
	C612.004883,259.281921 619.646973,257.677551 627.329590,256.350250 
	C629.430908,255.987213 631.739380,256.823303 633.975952,257.533386 
z"/>
<path fill="#F2E2CA" opacity="1.000000" stroke="none" 
	d="
M543.674194,275.093811 
	C534.920593,277.185059 525.713623,279.251526 515.865295,281.530121 
	C514.823853,281.881317 514.423889,282.020386 513.734131,282.121002 
	C512.910889,282.278412 512.377319,282.474213 511.525970,282.669373 
	C510.811768,282.811005 510.415314,282.953278 510.018860,283.095581 
	C509.183014,283.128876 508.347168,283.162170 507.094940,283.132355 
	C507.195862,282.370880 507.616882,281.169159 508.244781,281.049042 
	C519.226013,278.948334 530.231262,276.972870 541.236877,275.001465 
	C541.873779,274.887421 542.558472,275.040283 543.674194,275.093811 
z"/>
<path fill="#F2E2CA" opacity="1.000000" stroke="none" 
	d="
M299.773468,377.467102 
	C299.719574,377.917480 299.469147,377.873962 299.342834,377.887360 
	C299.805328,370.276886 300.375458,362.651428 301.035706,355.033752 
	C301.070251,354.634949 301.870728,354.302582 302.698090,353.746033 
	C301.996857,361.374115 300.912109,369.195404 299.773468,377.467102 
z"/>
<path fill="#F2E2CA" opacity="1.000000" stroke="none" 
	d="
M378.083557,309.709961 
	C372.026245,311.451050 365.793640,312.816345 359.117340,314.125488 
	C361.057007,313.041107 363.354584,311.627594 365.843536,311.073059 
	C369.797974,310.192047 373.880157,309.884308 378.083557,309.709961 
z"/>
<path fill="#CCA26F" opacity="1.000000" stroke="none" 
	d="
M725.908264,738.357300 
	C725.901245,737.581787 725.941101,737.139709 725.977356,736.364685 
	C725.973755,736.031677 726.399963,735.956482 726.616333,735.952759 
	C726.886169,746.645081 726.939697,757.341248 726.929565,768.494995 
	C726.692566,768.927734 726.519226,768.902832 726.137695,768.375000 
	C725.918152,758.592957 725.906860,749.313843 725.895569,740.034668 
	C725.915405,739.586670 725.935303,739.138733 725.908264,738.357300 
z"/>
<path fill="#F2E2CA" opacity="1.000000" stroke="none" 
	d="
M658.156616,662.232056 
	C658.556213,662.285645 658.624146,662.315552 658.364929,662.430054 
	C657.750977,662.720886 657.396301,662.897217 656.661865,663.053162 
	C654.351196,663.655090 652.420227,664.277405 650.237915,664.846069 
	C649.669434,664.909729 649.352356,665.026978 649.035278,665.144287 
	C645.618713,665.806641 642.202148,666.468994 638.376831,667.040894 
	C644.564392,665.359680 651.160645,663.769043 658.156616,662.232056 
z"/>
<path fill="#F2E2CA" opacity="1.000000" stroke="none" 
	d="
M582.359131,267.161560 
	C576.674377,268.525146 570.610596,269.845795 564.104492,271.119995 
	C565.891724,270.128662 568.043335,268.770874 570.368408,268.332336 
	C574.179688,267.613556 578.103638,267.492035 582.359131,267.161560 
z"/>
<path fill="#F2E2CA" opacity="1.000000" stroke="none" 
	d="
M410.604614,302.976868 
	C404.878113,304.379303 398.711395,305.847931 392.102051,307.197327 
	C397.827728,305.733093 403.996094,304.388092 410.604614,302.976868 
z"/>
<path fill="#F2E2CA" opacity="1.000000" stroke="none" 
	d="
M505.638855,283.091522 
	C499.882141,284.505615 493.669128,285.890717 487.003784,287.176331 
	C488.850769,286.322632 491.104004,285.338318 493.459930,284.866302 
	C497.332489,284.090363 501.271576,283.646454 505.638855,283.091522 
z"/>
<path fill="#F2E2CA" opacity="1.000000" stroke="none" 
	d="
M430.149048,299.199463 
	C424.285980,300.591461 418.009949,301.942017 411.324554,303.133636 
	C417.188843,301.702454 423.462463,300.430267 430.149048,299.199463 
z"/>
<path fill="#F2E2CA" opacity="1.000000" stroke="none" 
	d="
M466.848206,291.047913 
	C461.412659,292.459503 455.507080,293.851898 449.158691,295.162720 
	C450.992188,294.303070 453.220520,293.302582 455.555969,292.798645 
	C459.124542,292.028656 462.767090,291.601440 466.848206,291.047913 
z"/>
<path fill="#F2E2CA" opacity="1.000000" stroke="none" 
	d="
M485.789185,287.062622 
	C480.310944,288.485657 474.365967,289.887695 467.973480,291.179077 
	C469.651123,290.216827 471.709320,289.034180 473.916412,288.587555 
	C477.669067,287.828217 481.515503,287.532288 485.789185,287.062622 
z"/>
<path fill="#F2E2CA" opacity="1.000000" stroke="none" 
	d="
M562.686462,271.090210 
	C557.266174,272.488953 551.392639,273.860229 545.073364,275.156921 
	C546.593506,274.329926 548.502869,273.301910 550.537476,272.884521 
	C554.398132,272.092499 558.330566,271.650269 562.686462,271.090210 
z"/>
<path fill="#F2E2CA" opacity="1.000000" stroke="none" 
	d="
M309.393127,742.035645 
	C309.841949,742.918762 310.119354,743.668640 310.170349,744.749573 
	C307.638550,740.644226 305.333160,736.207764 302.974731,731.374023 
	C303.624725,731.955444 304.327728,732.934265 305.230865,734.158508 
	C305.431030,734.403992 305.475677,734.431458 305.557617,734.764038 
	C306.749969,737.093506 307.860413,739.090393 308.970856,741.087280 
	C308.947693,741.391846 309.031311,741.663513 309.393127,742.035645 
z"/>
<path fill="#9C5518" opacity="1.000000" stroke="none" 
	d="
M518.636108,736.083740 
	C516.392029,736.395813 513.801147,736.619446 511.104584,736.507080 
	C513.429077,736.112488 515.859192,736.053894 518.636108,736.083740 
z"/>
<path fill="#F2E2CA" opacity="1.000000" stroke="none" 
	d="
M327.038574,761.384521 
	C327.581696,761.085083 328.246582,761.125488 329.257721,761.269775 
	C329.604004,761.373596 329.675598,761.367981 329.905640,761.611328 
	C332.575958,763.001526 335.016235,764.148376 337.456543,765.295166 
	C337.456543,765.295166 337.184814,765.703613 337.048340,765.907410 
	C333.661316,764.648987 330.410797,763.186768 327.038574,761.384521 
z"/>
<path fill="#F2E2CA" opacity="1.000000" stroke="none" 
	d="
M340.487122,318.127991 
	C337.440979,319.619202 333.986328,321.062592 330.229126,322.214539 
	C333.310577,320.642151 336.694611,319.361145 340.487122,318.127991 
z"/>
<path fill="#D4B187" opacity="1.000000" stroke="none" 
	d="
M551.840088,735.335266 
	C548.801636,735.528992 545.301270,735.600281 541.491516,735.437744 
	C541.565125,735.142639 541.948059,735.081360 542.620239,734.983887 
	C545.732300,735.036072 548.555237,735.124451 551.840088,735.335266 
z"/>
<path fill="#F2E2CA" opacity="1.000000" stroke="none" 
	d="
M305.573242,346.060242 
	C305.200745,348.288330 304.476318,350.646423 303.417969,353.195007 
	C303.796478,350.987091 304.508911,348.588654 305.573242,346.060242 
z"/>
<path fill="#F2E2CA" opacity="1.000000" stroke="none" 
	d="
M314.945557,751.365479 
	C316.294434,752.135803 317.679871,753.266602 319.029114,754.745239 
	C317.655975,753.970703 316.319061,752.848267 314.945557,751.365479 
z"/>
<path fill="#F2E2CA" opacity="1.000000" stroke="none" 
	d="
M308.618591,341.027039 
	C308.176178,342.704285 307.397980,344.495392 306.263672,346.119507 
	C306.699341,344.348602 307.491089,342.744751 308.618591,341.027039 
z"/>
<path fill="#F2E2CA" opacity="1.000000" stroke="none" 
	d="
M313.584473,334.055237 
	C313.149139,335.398743 312.397766,336.849670 311.278687,338.128601 
	C311.696808,336.691956 312.482635,335.427338 313.584473,334.055237 
z"/>
<path fill="#F2E2CA" opacity="1.000000" stroke="none" 
	d="
M327.570007,322.943420 
	C326.843567,323.973602 325.747101,325.032135 324.279846,326.041748 
	C325.006042,324.985779 326.103027,323.978790 327.570007,322.943420 
z"/>
<path fill="#F2E2CA" opacity="1.000000" stroke="none" 
	d="
M321.615540,326.939362 
	C320.764465,328.163910 319.574982,329.416595 318.167419,330.287903 
	C319.058594,328.926849 320.167877,327.947174 321.615540,326.939362 
z"/>
<path fill="#F2E2CA" opacity="1.000000" stroke="none" 
	d="
M322.735657,758.240112 
	C323.989929,758.754761 325.519592,759.550232 327.020569,760.721619 
	C325.664886,760.238647 324.337952,759.379761 322.735657,758.240112 
z"/>
<path fill="#9C5518" opacity="1.000000" stroke="none" 
	d="
M526.889893,735.647339 
	C526.153259,736.089539 525.253113,736.252869 524.150391,736.173706 
	C524.874023,735.743530 525.800232,735.556030 526.889893,735.647339 
z"/>
<path fill="#F2E2CA" opacity="1.000000" stroke="none" 
	d="
M309.941101,745.363098 
	C310.752502,745.833984 311.602020,746.639160 312.194763,747.759827 
	C311.285065,747.282654 310.632141,746.489990 309.941101,745.363098 
z"/>
<path fill="#F2E2CA" opacity="1.000000" stroke="none" 
	d="
M316.571594,330.946167 
	C316.491211,331.801117 316.053680,332.677399 315.269897,333.239624 
	C315.353912,332.272919 315.784180,331.620209 316.571594,330.946167 
z"/>
<path fill="#F2E2CA" opacity="1.000000" stroke="none" 
	d="
M311.949585,748.417847 
	C312.650177,748.479004 313.381989,748.903137 314.051178,749.709290 
	C313.319305,749.654480 312.650024,749.217651 311.949585,748.417847 
z"/>
<path fill="#F2E2CA" opacity="1.000000" stroke="none" 
	d="
M318.940491,755.375366 
	C319.702911,755.476013 320.497559,755.941895 321.125061,756.747498 
	C320.296173,756.638367 319.634430,756.189514 318.940491,755.375366 
z"/>
<path fill="#F2E2CA" opacity="1.000000" stroke="none" 
	d="
M309.604797,339.040710 
	C309.861389,339.610077 309.811707,340.280273 309.329163,340.975281 
	C309.030396,340.380615 309.164459,339.761078 309.604797,339.040710 
z"/>
<path fill="#F2E2CA" opacity="1.000000" stroke="none" 
	d="
M329.654480,321.927734 
	C329.506409,322.429138 329.035461,322.965454 328.244965,323.215424 
	C328.394135,322.606903 328.862854,322.284760 329.654480,321.927734 
z"/>
<path fill="#F2E2CA" opacity="1.000000" stroke="none" 
	d="
M323.695435,325.947632 
	C323.518555,326.426483 323.018097,326.945923 322.222290,327.199188 
	C322.408569,326.618073 322.890228,326.303131 323.695435,325.947632 
z"/>
<path fill="#F2E2CA" opacity="1.000000" stroke="none" 
	d="
M321.041351,757.363037 
	C321.374237,757.089539 321.837646,757.140442 322.410675,757.580811 
	C322.070801,757.876038 321.621338,757.781738 321.041351,757.363037 
z"/>
<path fill="#F2E2CA" opacity="1.000000" stroke="none" 
	d="
M310.703674,337.974182 
	C310.865417,338.390900 310.764526,338.875305 310.286652,339.151825 
	C310.086761,338.643219 310.263885,338.342529 310.703674,337.974182 
z"/>
<path fill="#F2E2CA" opacity="1.000000" stroke="none" 
	d="
M357.754456,314.178009 
	C357.902649,314.163269 357.675751,314.278259 357.675751,314.278259 
	C357.675751,314.278259 357.485077,314.251221 357.396973,314.230957 
	C357.308868,314.210663 357.606232,314.192749 357.754456,314.178009 
z"/>
<path fill="#F2E2CA" opacity="1.000000" stroke="none" 
	d="
M313.987793,750.274719 
	C314.285004,750.144653 314.662598,750.281372 315.019165,750.755188 
	C314.688171,750.908630 314.378204,750.725098 313.987793,750.274719 
z"/>
<path fill="#F2E2CA" opacity="1.000000" stroke="none" 
	d="
M314.683838,332.971985 
	C314.870880,333.404785 314.795349,333.900909 314.313965,334.168610 
	C314.079132,333.638550 314.250214,333.336945 314.683838,332.971985 
z"/>
<path fill="#F2E2CA" opacity="1.000000" stroke="none" 
	d="
M317.687012,329.980225 
	C317.874451,330.395660 317.802704,330.881134 317.320343,331.157898 
	C317.082428,330.649536 317.255127,330.349915 317.687012,329.980225 
z"/>
<path fill="#E3C89B" opacity="1.000000" stroke="none" 
	d="
M692.779663,651.675659 
	C692.963074,652.004028 692.903748,652.548523 692.377197,653.025269 
	C692.119019,652.602295 692.327881,652.247070 692.779663,651.675659 
z"/>
<path fill="#E3C89B" opacity="1.000000" stroke="none" 
	d="
M691.664062,652.976807 
	C691.796387,653.291992 691.642456,653.671753 691.113220,654.028564 
	C690.951233,653.684143 691.164551,653.362732 691.664062,652.976807 
z"/>
<path fill="#F2E2CA" opacity="1.000000" stroke="none" 
	d="
M302.342163,730.491577 
	C302.239746,730.649719 302.371948,730.891663 302.869812,731.020996 
	C302.842926,730.922546 302.623383,730.811523 302.342163,730.491577 
z"/>
<path fill="#B25709" opacity="1.000000" stroke="none" 
	d="
M304.389160,711.994263 
	C304.335358,679.218384 304.851532,646.442139 304.924438,613.664795 
	C304.968842,593.713989 304.251007,573.762512 304.025757,553.809631 
	C303.880615,540.955261 304.012909,528.097717 304.012024,515.241638 
	C304.008698,466.011383 303.927307,416.780853 304.095612,367.551178 
	C304.115417,361.757385 303.659119,355.530243 307.404236,350.424652 
	C311.157776,345.307617 315.235779,340.428558 318.755554,335.971954 
	C321.171051,333.530090 322.745178,331.313263 324.863617,329.930237 
	C328.996826,327.231812 333.256012,324.561340 337.801636,322.711121 
	C341.554352,321.183685 345.792969,320.845215 349.820465,319.999908 
	C351.423431,319.663483 353.366302,319.851562 354.592255,318.995697 
	C361.355957,314.273590 369.326019,314.432220 376.925293,313.320923 
	C381.301239,312.681000 385.827271,313.075958 390.285187,312.979523 
	C391.111328,312.961700 392.171021,313.125092 392.724548,312.693695 
	C403.148468,304.569824 415.809906,305.112732 427.852783,304.338715 
	C432.067810,304.067810 434.312683,301.413788 437.729950,300.495789 
	C447.359192,297.909088 456.961426,295.387085 467.580933,296.348267 
	C469.350006,297.940399 470.395233,299.611877 471.898041,300.343964 
	C476.502686,302.587006 481.191528,304.730927 486.020264,306.419891 
	C491.027374,308.171173 493.021332,312.561920 495.415070,316.485138 
	C495.935608,317.338287 494.411926,320.060791 493.175415,321.230865 
	C490.805176,323.473877 487.855713,325.090179 485.343201,327.200562 
	C479.730469,331.915039 473.922333,333.528076 466.510284,331.102722 
	C463.322357,330.059662 458.921722,331.605194 455.459106,332.962341 
	C453.555267,333.708527 453.446899,336.502502 456.179749,337.484253 
	C459.241058,338.583954 459.486816,340.158112 457.916504,342.775696 
	C457.313721,343.780457 457.151855,345.340607 457.404877,346.515045 
	C458.267670,350.519897 456.713745,352.741119 452.956543,354.073456 
	C451.767212,354.495209 450.300385,355.938354 450.121307,357.093994 
	C449.329224,362.204895 446.799622,365.620483 442.326660,368.354950 
	C438.823242,370.496704 435.936462,373.740570 438.330414,378.754822 
	C439.522491,381.251587 440.846771,384.034271 440.845337,386.686951 
	C440.840881,394.914795 442.382385,403.352814 438.494446,411.247162 
	C438.095123,412.057983 438.027008,413.270203 438.305450,414.135101 
	C439.476685,417.773285 440.837891,421.350311 442.182220,425.096375 
	C442.645569,424.725311 443.526825,424.019653 444.456665,423.275055 
	C445.006927,423.920624 445.560181,424.265778 445.605133,424.667786 
	C446.363373,431.449371 447.483368,437.498840 452.669922,443.221832 
	C456.203033,447.120361 458.935730,452.119629 462.961731,456.002167 
	C465.092499,458.057037 466.279449,461.069000 468.334412,463.228302 
	C473.172241,468.311890 477.981598,473.501373 483.388397,477.933136 
	C486.323608,480.338989 488.931854,484.605011 494.050415,483.373535 
	C495.449799,487.062897 494.698639,492.298737 501.136322,490.953735 
	C501.870850,490.800262 503.210938,493.345520 504.203033,494.689056 
	C504.957703,495.711090 505.437012,496.993408 506.341522,497.834290 
	C507.643250,499.044403 509.615234,499.676880 510.599152,501.056580 
	C512.856812,504.222260 515.186462,505.694153 518.757263,502.984375 
	C518.818970,502.975586 518.930420,503.031555 518.930420,503.031555 
	C516.836243,507.285217 520.308105,510.940796 522.321472,512.396362 
	C526.189087,515.192383 527.154785,520.997864 532.555786,521.834229 
	C533.194763,529.710938 540.817261,532.546143 544.312256,538.309875 
	C545.269958,539.889282 544.804688,542.499451 544.576111,544.591125 
	C544.226318,547.791748 543.988708,550.397644 548.302795,551.177673 
	C551.551880,551.765198 553.642883,557.150635 552.129578,560.603699 
	C549.162964,567.372803 549.374512,574.098877 551.412598,581.049988 
	C552.094727,583.376587 552.068665,585.999451 551.924072,588.460938 
	C551.639832,593.297424 548.318176,593.285950 544.539062,592.332031 
	C543.010681,595.861328 541.374573,598.539062 544.326721,602.703918 
	C547.292297,606.887695 542.872620,610.853516 540.631836,614.300720 
	C538.150330,618.118164 534.642700,621.254883 531.732849,624.811523 
	C529.172302,627.941223 526.481750,629.951965 522.953857,627.225891 
	C520.717529,628.642761 518.811646,629.807678 516.953918,631.045044 
	C516.009155,631.674316 514.732910,632.245300 514.318665,633.163879 
	C510.212921,642.268555 501.428772,645.259399 493.431183,649.218567 
	C492.474609,649.692139 490.932068,649.057251 489.679077,648.834839 
	C488.546051,648.633667 487.253204,647.778381 486.349182,648.101685 
	C481.633484,649.788025 478.093597,647.352173 473.839386,646.046326 
	C469.656036,644.762329 464.204285,647.610840 458.199341,648.880676 
	C458.091217,648.805542 456.812408,647.917542 455.305328,646.870972 
	C451.692108,651.888916 457.018341,651.510803 459.582214,653.558533 
	C457.451141,654.983887 455.777191,656.103455 454.050812,657.258057 
	C454.456238,661.354614 450.116821,663.584412 444.896698,662.543884 
	C441.893402,661.945251 438.631958,662.452148 435.506866,662.707764 
	C432.391663,662.962524 429.061554,664.474915 426.248474,663.763733 
	C419.493896,662.055847 413.446198,663.967773 407.215027,665.755554 
	C405.004700,666.389648 402.663483,666.554749 400.400116,667.021606 
	C399.143799,667.280701 397.676025,667.408264 396.744781,668.149475 
	C395.169556,669.403198 394.008392,672.315491 392.560547,672.391785 
	C386.624451,672.704285 380.645813,672.208984 374.682861,672.010986 
	C375.037109,671.310120 375.391388,670.609253 375.745636,669.908386 
	C374.725464,668.010132 374.125092,665.600647 372.584747,664.335938 
	C370.383881,662.528931 367.953033,659.632019 364.372620,662.834351 
	C363.600555,663.524902 361.388336,662.364929 359.914490,662.577332 
	C358.383026,662.798096 356.942413,663.649292 355.462067,664.224731 
	C356.154694,665.593018 356.512756,667.678040 357.605927,668.188293 
	C360.320190,669.455383 363.369965,670.003723 365.036438,670.482300 
	C363.657776,672.866638 362.254944,675.350281 360.786743,677.794556 
	C360.378632,678.473999 359.894684,679.234802 359.245087,679.622253 
	C353.941376,682.785461 342.095856,681.303894 337.809082,676.550110 
	C333.721771,672.017517 330.653137,676.386047 327.342102,677.509888 
	C326.906830,677.657654 327.297943,681.434937 327.946808,683.309387 
	C328.993805,686.333801 329.185547,689.916382 332.833160,691.655884 
	C333.391693,691.922302 333.399750,695.477905 332.646271,695.976440 
	C329.962616,697.752075 328.820770,703.024963 324.012482,700.407410 
	C322.593384,699.634827 321.394623,698.434143 320.154663,697.360596 
	C317.549744,695.105347 314.332550,695.818054 313.033081,699.008240 
	C311.780670,702.082825 310.856232,705.336426 309.233948,708.197327 
	C308.329163,709.792969 306.296539,710.749084 304.389160,711.994263 
z"/>
<path fill="#000000" opacity="1.000000" stroke="none" 
	d="
M333.760925,715.552917 
	C330.249512,701.992493 340.045288,685.217224 355.945129,682.893188 
	C367.630920,681.185181 379.136993,678.283386 390.779327,676.232300 
	C401.862946,674.279724 413.065247,672.988586 424.129974,670.944336 
	C433.742218,669.168457 443.326324,667.083374 452.759521,664.531372 
	C467.214630,660.620728 481.949005,657.250366 495.814178,651.756409 
	C522.454590,641.200134 543.107727,623.656677 553.482605,595.973267 
	C554.552673,593.117798 554.529480,589.852661 555.471313,586.373291 
	C556.506714,583.615479 557.369690,581.290710 557.609619,578.903259 
	C558.403503,571.003479 558.502747,563.138306 554.844238,555.749451 
	C554.534607,554.290833 554.224976,552.832153 553.506470,550.758789 
	C552.770569,541.633850 548.257751,535.106323 543.040710,528.912415 
	C543.040710,528.912415 543.025574,528.982727 543.026978,528.643921 
	C542.362915,527.506531 541.697571,526.707947 541.032166,525.909424 
	C541.032166,525.909424 541.022217,525.980774 541.022705,525.616333 
	C539.039307,522.811829 537.055420,520.371826 535.071594,517.931763 
	C535.071594,517.931763 535.011353,517.998169 534.979980,517.711792 
	C534.638489,517.251892 534.328430,517.078430 534.018311,516.904907 
	C534.018311,516.904907 534.017761,516.977600 534.025085,516.621216 
	C532.051392,514.157532 530.070312,512.050232 528.089294,509.942902 
	C528.089294,509.942902 528.039368,509.960663 527.948303,509.614990 
	C523.578369,505.477448 519.299500,501.685547 515.012695,497.936707 
	C515.004822,497.979736 515.091614,497.990509 515.052368,497.626038 
	C514.356445,496.813141 513.699829,496.364716 513.031921,495.950256 
	C513.020691,495.984222 513.091309,495.972748 513.023560,495.706085 
	C512.649536,495.261444 512.343384,495.083466 512.021362,494.944519 
	C512.005493,494.983551 512.072205,494.932037 511.968445,494.609985 
	C510.251801,493.161011 508.638947,492.034027 507.023682,490.943726 
	C507.021271,490.980377 507.094757,490.980164 507.032288,490.707489 
	C506.657562,490.258392 506.345306,490.081970 506.023010,489.942413 
	C506.012939,489.979279 506.080231,489.942993 505.987976,489.617279 
	C503.612183,487.499207 501.328644,485.706818 499.034485,483.948792 
	C499.023834,483.983185 499.095123,483.973297 499.029388,483.705505 
	C498.656677,483.261261 498.349731,483.084778 498.020233,482.950378 
	C497.997711,482.992462 498.060516,482.920929 497.963013,482.598236 
	C496.255280,481.153870 494.645081,480.032227 493.029053,478.946228 
	C493.023224,478.981903 493.095520,478.982635 493.033264,478.707642 
	C492.655487,478.256866 492.339996,478.081024 492.023010,477.941528 
	C492.021545,477.977875 492.093964,477.971313 492.061310,477.608673 
	C491.369934,476.804474 490.711243,476.362915 490.026855,475.959259 
	C490.001221,475.997162 490.066406,475.933014 489.956116,475.615051 
	C488.892273,474.839081 487.938751,474.381104 486.961243,473.973328 
	C486.937317,474.023560 487.032288,474.081573 486.890442,473.876587 
	C486.294098,473.196777 485.839569,472.721954 485.051819,472.102051 
	C481.432251,469.007324 478.145966,466.057709 474.925629,462.739319 
	C473.018524,460.224487 471.045441,458.078400 469.041016,455.964722 
	C469.009705,455.997162 469.090973,455.958008 469.027527,455.686462 
	C468.649597,455.244598 468.335114,455.074310 468.020447,454.941223 
	C468.020294,454.978394 468.094513,454.973541 468.063416,454.627167 
	C466.708954,452.829437 465.385559,451.378082 464.034912,449.961121 
	C464.007660,449.995544 464.083130,449.950714 464.055084,449.610321 
	C463.039093,448.155151 462.051147,447.040375 461.033630,445.961609 
	C461.004028,445.997620 461.078369,445.941315 461.056213,445.578430 
	C457.313660,439.342987 453.593323,433.470428 449.726501,427.283752 
	C446.104889,417.759949 443.106537,408.343872 443.158630,398.448456 
	C443.232391,384.429199 447.256836,371.307861 455.010040,359.647949 
	C465.328400,344.130280 479.777588,333.299561 496.243927,324.922394 
	C514.368713,315.701477 533.978455,311.653229 553.720886,307.920807 
	C561.196167,306.507538 568.567322,304.543915 576.395996,302.902130 
	C583.154053,301.774200 589.502014,300.575287 596.262207,299.195984 
	C600.456604,298.387238 599.996521,300.948425 599.994324,303.313995 
	C599.973572,325.791260 599.979980,348.268494 599.992615,370.745758 
	C600.037170,450.164917 600.087219,529.584106 600.032593,609.324219 
	C600.010437,611.103699 600.090820,612.562134 600.124146,614.345337 
	C600.035034,615.105408 599.993042,615.540771 599.633667,616.181152 
	C597.635315,622.650635 596.560425,629.163025 594.123352,635.117920 
	C590.918762,642.948303 586.642395,650.340149 582.639893,657.981689 
	C582.188416,658.186279 582.075745,658.407166 581.834595,658.827576 
	C581.349365,659.275574 581.144409,659.601624 580.969727,659.963867 
	C581.000000,660.000000 580.940674,659.927734 580.648315,659.987549 
	C579.843262,660.639465 579.330566,661.231567 578.507751,661.965637 
	C576.777039,664.045593 575.356445,665.983521 573.963745,667.961975 
	C573.991577,668.002441 573.946289,667.916931 573.670898,667.958130 
	C573.235168,668.313660 573.074768,668.627991 572.951416,668.966125 
	C572.988403,668.989929 572.943542,668.914124 572.670654,668.961182 
	C572.237061,669.321106 572.076355,669.634033 571.952271,669.967651 
	C571.988892,669.988464 571.946411,669.915771 571.673096,669.964111 
	C571.238098,670.326111 571.076355,670.639771 570.949829,670.969421 
	C570.984985,670.985413 570.954407,670.914490 570.681396,670.966370 
	C570.242859,671.331360 570.077271,671.644531 569.946777,671.969849 
	C569.981873,671.982117 569.957275,671.911926 569.679199,671.959656 
	C569.238037,672.326416 569.074890,672.645447 568.946289,672.972900 
	C568.980896,672.981262 568.970642,672.910828 568.627075,673.030029 
	C568.160461,673.604858 568.037415,674.060425 567.589600,674.444336 
	C559.279114,682.047241 549.690002,687.453125 539.379333,690.680725 
	C524.742188,695.262634 509.627289,698.311951 494.731964,702.077087 
	C477.775146,706.363464 460.820740,710.660889 443.893402,715.061401 
	C432.882111,717.923950 421.920959,720.979370 410.937347,723.948425 
	C410.937347,723.948425 411.000702,723.984436 410.569916,723.959717 
	C398.995270,726.481445 387.853577,729.037231 376.706879,731.571106 
	C367.529297,733.657471 358.435760,737.312866 348.904968,732.771790 
	C345.284607,729.571167 341.661835,726.742126 338.039062,723.913086 
	C338.039093,723.913086 338.023865,723.982971 338.027405,723.610718 
	C336.607635,720.676575 335.184265,718.114746 333.760925,715.552917 
z"/>
<path fill="#B25709" opacity="1.000000" stroke="none" 
	d="
M582.114868,658.705566 
	C582.075745,658.407166 582.188416,658.186279 582.860901,658.197510 
	C585.908752,656.475403 588.548706,654.598633 592.049438,652.109924 
	C592.102722,651.904053 592.497620,650.308044 592.929260,648.722107 
	C595.437561,639.505737 598.036499,630.312622 600.388306,621.056580 
	C600.783691,619.500610 600.123474,617.676392 599.951050,615.976074 
	C599.993042,615.540771 600.035034,615.105408 600.432373,614.109497 
	C601.189453,611.496277 601.941589,609.443909 601.942810,607.391174 
	C602.000061,506.354645 601.997131,405.318085 601.957214,304.281555 
	C601.956482,302.518158 601.423950,300.754974 601.084534,298.751770 
	C601.029419,298.511841 600.997620,298.020538 600.895752,297.645477 
	C598.500671,296.920044 596.072449,295.908966 593.940063,296.344971 
	C587.895264,297.580994 581.971436,299.408875 575.572021,301.002808 
	C570.058716,301.863037 566.679871,298.200714 562.738647,296.175110 
	C557.683167,293.576843 552.750000,290.707306 547.969055,287.635651 
	C546.975342,286.997192 546.501465,284.967773 546.483704,283.570587 
	C546.468689,282.386200 547.458679,281.189056 548.003967,279.997559 
	C548.833984,279.997559 549.664001,279.997559 550.493958,279.997559 
	C550.546997,279.815125 550.599976,279.632690 550.652954,279.450256 
	C549.676453,279.133667 548.700012,278.817108 546.128723,277.983521 
	C549.172791,277.054443 550.844299,276.287018 552.587158,276.054565 
	C563.189819,274.640320 573.841309,273.553162 584.400330,271.876953 
	C587.194275,271.433411 589.619751,269.034027 592.387695,267.993530 
	C600.804382,264.829559 609.619385,264.691833 618.467407,264.979675 
	C621.057800,265.063965 623.653259,264.992676 627.214355,264.992676 
	C625.792236,263.335114 625.150635,262.587341 624.394897,261.706451 
	C631.119995,260.346771 631.985107,260.954102 631.985657,266.979340 
	C631.996338,381.249908 632.009949,495.520447 631.937439,609.790955 
	C631.934753,614.072021 631.305420,618.397827 630.491394,622.610657 
	C630.172729,624.259949 628.434937,625.596252 627.539734,627.185669 
	C626.867126,628.379883 626.034241,629.769287 626.084351,631.039734 
	C626.473145,640.895325 625.610107,650.256592 618.394043,658.011169 
	C615.792603,660.806702 614.015564,664.351624 611.616272,667.358215 
	C609.296204,670.265503 609.465271,674.104736 612.708069,677.091431 
	C618.449097,682.948792 623.900635,688.897583 629.473816,694.979126 
	C626.481873,699.612915 622.880127,704.094116 616.006287,704.926453 
	C609.760315,705.682678 604.317627,705.451904 599.685791,700.369446 
	C597.647278,698.132568 594.534058,696.891724 591.966614,695.114990 
	C590.111206,693.831116 587.897949,692.735962 586.636230,690.985779 
	C583.229248,686.259949 580.259827,681.219727 577.077087,676.330078 
	C576.633484,675.648621 575.966187,675.112671 575.353394,673.888000 
	C575.512695,671.480896 575.721191,669.695251 575.952393,667.931274 
	C575.975098,667.953064 575.918030,667.978271 576.148193,667.859253 
	C576.575684,667.462097 576.773010,667.183899 576.972778,666.942017 
	C576.975159,666.978271 576.902893,666.970703 577.135742,666.851318 
	C577.564270,666.448669 577.759827,666.165405 577.957031,665.922363 
	C577.958679,665.962463 577.878601,665.956177 578.116333,665.837524 
	C578.542114,665.425354 578.730225,665.131897 578.882446,664.877930 
	C578.846558,664.917358 578.777527,664.836060 579.144287,664.824158 
	C580.002319,663.830750 580.493469,662.849243 581.062988,661.530762 
	C581.177124,661.043823 581.268555,660.881104 581.237549,660.746704 
	C581.172852,660.465881 581.043457,660.199829 580.940674,659.927734 
	C580.940674,659.927734 581.000000,660.000000 581.216736,660.191345 
	C581.656555,660.364441 581.879700,660.346252 582.174194,660.414368 
	C582.245544,660.500732 582.570862,660.379944 582.570862,660.379944 
	C582.570862,660.379944 582.278137,660.056091 582.264771,659.715149 
	C582.205933,659.151367 582.160400,658.928467 582.114868,658.705566 
z"/>
<path fill="#B25709" opacity="1.000000" stroke="none" 
	d="
M662.467773,357.923828 
	C657.865540,350.263611 659.307495,341.982391 658.927063,333.891022 
	C658.718262,329.449982 659.897949,327.785004 664.684509,327.886627 
	C679.153137,328.193878 693.632751,328.030457 708.107666,327.965973 
	C712.207275,327.947693 716.305603,327.639832 720.704102,327.724121 
	C721.002502,435.837677 721.001343,543.691833 720.999512,651.546021 
	C720.999512,653.044006 721.428284,654.733276 720.876404,655.990723 
	C720.210449,657.507935 718.823914,659.560059 717.539368,659.722717 
	C716.169434,659.896179 713.920227,658.495117 713.156433,657.154053 
	C709.923767,651.477661 707.384583,645.394165 703.980225,639.834045 
	C702.724976,637.784058 699.782959,636.766785 697.293457,635.129700 
	C696.658386,626.634277 696.340271,618.287720 696.307251,609.421143 
	C696.884766,608.586548 697.177307,608.271851 697.469788,607.957214 
	C696.993591,607.636475 696.517395,607.315674 696.041199,606.994873 
	C696.355896,594.372131 696.937134,581.748901 696.915405,569.126770 
	C696.890320,554.566162 696.083130,540.007019 696.052124,525.446289 
	C695.938416,472.053436 696.019287,418.660156 695.953857,365.267120 
	C695.951416,363.253510 695.192444,361.240845 694.402954,359.112854 
	C691.455322,358.651917 688.894775,358.048798 686.325317,358.007721 
	C678.529724,357.883087 670.730713,357.975922 662.467773,357.923828 
z"/>
<path fill="#A85A15" opacity="1.000000" stroke="none" 
	d="
M337.838318,765.366272 
	C335.016235,764.148376 332.575958,763.001526 329.928101,761.583374 
	C338.188843,760.760620 346.458618,760.423706 354.391571,764.922485 
	C357.443268,766.653076 361.787445,766.451172 365.552979,766.513855 
	C378.655548,766.732056 391.763031,766.769775 404.867767,766.701660 
	C414.420380,766.651978 423.970795,766.226501 433.523560,766.156677 
	C441.488098,766.098389 449.454651,766.314331 457.420288,766.407288 
	C474.384216,766.605225 491.348297,766.957092 508.312012,766.941833 
	C518.537415,766.932678 528.763550,766.038513 538.987061,766.081360 
	C588.015320,766.286682 637.042542,766.723755 686.070801,766.950684 
	C693.787109,766.986450 701.505127,766.324036 709.225525,766.087708 
	C710.686646,766.042908 712.172180,766.435974 713.630188,766.713013 
	C719.563599,767.840820 720.848572,766.857483 721.012024,761.016968 
	C721.039673,760.030090 721.116882,759.044678 721.199585,757.543579 
	C722.461792,758.078369 723.402466,758.476990 724.672546,759.358521 
	C724.000610,762.807312 722.999329,765.773010 721.998047,768.738770 
	C685.697388,768.804871 649.396667,768.919312 613.096008,768.927246 
	C530.662109,768.945251 448.227814,769.019165 365.794769,768.745972 
	C356.599670,768.715515 347.411469,766.590820 337.838318,765.366272 
z"/>
<path fill="#B25709" opacity="1.000000" stroke="none" 
	d="
M648.933472,665.482666 
	C649.352356,665.026978 649.669434,664.909729 650.712708,664.868286 
	C653.291748,664.962708 655.144653,664.981384 657.196594,665.229126 
	C658.267700,665.299133 659.139709,665.140015 660.011780,664.980896 
	C660.754517,664.980896 661.497192,664.980896 662.610718,664.977783 
	C665.637024,667.772583 668.155884,670.719604 670.993835,673.318176 
	C673.044067,675.195496 675.468140,676.687134 677.816284,678.210999 
	C680.824829,680.163513 684.828491,682.742554 682.493103,686.161621 
	C680.890381,688.508118 675.786987,689.858948 672.564453,689.406006 
	C666.329956,688.529663 660.370544,684.844543 654.200867,684.581421 
	C647.144409,684.280518 644.218384,677.941162 638.529541,677.316162 
	C638.989624,674.664429 639.297791,672.888672 639.299072,671.054016 
	C640.527832,670.016663 642.007507,668.931458 643.614380,668.089050 
	C645.289490,667.210999 647.087341,666.567261 648.933472,665.482666 
z"/>
<path fill="#B25709" opacity="1.000000" stroke="none" 
	d="
M552.004578,687.999390 
	C555.630493,687.088074 557.150085,689.977966 559.441040,691.824036 
	C565.671997,696.844788 572.209045,701.483887 578.538269,706.385986 
	C579.848999,707.401245 581.721619,708.963745 581.639343,710.157104 
	C581.552246,711.421326 579.626038,713.218506 578.183838,713.611633 
	C572.823486,715.072876 567.358948,716.223938 561.870544,717.093567 
	C560.468872,717.315613 558.579468,716.401306 557.352417,715.446045 
	C552.088501,711.347961 547.048828,706.962463 541.799988,702.844055 
	C539.517212,701.052917 534.551636,700.581482 539.278442,696.154907 
	C539.488831,695.957825 538.532898,694.515381 538.398071,693.179626 
	C543.118835,691.137268 547.561707,689.568298 552.004578,687.999390 
z"/>
<path fill="#B25709" opacity="1.000000" stroke="none" 
	d="
M676.011719,660.371765 
	C682.599854,658.270630 689.197266,656.504639 695.901001,654.370544 
	C700.975647,655.085754 704.934875,657.335449 708.068848,661.708313 
	C710.592224,665.229187 714.525574,667.709839 717.595764,670.881897 
	C719.015625,672.348755 720.462402,674.280640 720.726135,676.165588 
	C720.855408,677.089539 718.483276,678.778198 716.949463,679.453491 
	C706.353333,684.118713 698.453735,679.110168 690.778076,672.326538 
	C686.285400,668.356018 681.064331,665.210693 676.195679,661.660339 
	C676.006348,661.522278 676.073425,661.032654 676.011719,660.371765 
z"/>
<path fill="#9C5518" opacity="1.000000" stroke="none" 
	d="
M552.175171,687.696533 
	C547.561707,689.568298 543.118835,691.137268 538.336792,692.864136 
	C536.257385,693.911743 534.540039,694.850403 532.770691,695.677673 
	C531.007080,696.502197 529.256409,697.580750 527.387146,697.913452 
	C519.198120,699.371155 511.060883,700.248474 503.053986,703.389954 
	C494.904144,706.587646 485.762390,707.257019 476.568390,709.132690 
	C477.848297,710.339966 478.710449,711.153137 480.131683,712.493713 
	C466.802734,711.292908 454.857330,714.603210 442.881744,717.179871 
	C434.637482,718.953613 426.666931,721.968689 418.493469,724.123413 
	C416.401215,724.674927 414.003662,724.068359 411.341858,723.971130 
	C421.920959,720.979370 432.882111,717.923950 443.893402,715.061401 
	C460.820740,710.660889 477.775146,706.363464 494.731964,702.077087 
	C509.627289,698.311951 524.742188,695.262634 539.379333,690.680725 
	C549.690002,687.453125 559.279114,682.047241 567.915283,674.279480 
	C568.700745,673.761047 568.835693,673.335938 568.970642,672.910828 
	C568.970642,672.910828 568.980896,672.981262 569.295715,673.039062 
	C569.726135,672.701904 569.841736,672.306885 569.957275,671.911926 
	C569.957275,671.911926 569.981873,671.982117 570.299927,672.049927 
	C570.730164,671.716614 570.842285,671.315552 570.954407,670.914490 
	C570.954407,670.914490 570.984985,670.985413 571.313416,671.071167 
	C571.743347,670.743225 571.844849,670.329529 571.946411,669.915771 
	C571.946411,669.915771 571.988892,669.988464 572.316650,670.086365 
	C572.744080,669.760864 572.843811,669.337524 572.943542,668.914124 
	C572.943542,668.914124 572.988403,668.989929 573.317444,669.094299 
	C573.746460,668.771423 573.846375,668.344177 573.946289,667.916931 
	C573.946289,667.916931 573.991577,668.002441 574.255371,668.194458 
	C574.989380,668.227478 575.459473,668.068481 575.929626,667.909546 
	C575.721191,669.695251 575.512695,671.480896 575.144409,673.616089 
	C573.658081,674.479980 571.495972,674.661865 571.137878,675.561768 
	C568.376526,682.499817 560.985779,681.828979 556.052612,685.108704 
	C554.844604,685.911865 553.582825,686.634216 552.175171,687.696533 
z"/>
<path fill="#9C5518" opacity="1.000000" stroke="none" 
	d="
M348.902618,733.143372 
	C358.435760,737.312866 367.529297,733.657471 376.706879,731.571106 
	C387.853577,729.037231 398.995270,726.481445 410.555359,723.926331 
	C405.697510,725.923523 400.454163,728.015625 395.140808,729.911377 
	C389.666473,731.864624 384.123627,733.625793 378.611725,735.473755 
	C378.298706,735.578735 377.997589,735.803345 377.685394,735.814270 
	C369.601166,736.097717 361.517456,736.424377 353.430481,736.585388 
	C351.136536,736.631042 348.834503,736.162720 346.533020,735.967834 
	C343.681366,735.726257 344.654785,734.481079 346.292023,732.961243 
	C347.506744,732.876648 348.204681,733.010010 348.902618,733.143372 
z"/>
<path fill="#B25709" opacity="1.000000" stroke="none" 
	d="
M725.864258,444.957062 
	C725.897583,447.671783 725.930847,450.386475 725.909912,453.550232 
	C724.922302,453.292236 723.215210,452.621002 723.180542,451.872406 
	C722.950439,446.900238 723.007690,441.909027 723.176941,436.931030 
	C723.198853,436.287048 724.401794,435.683197 725.453857,435.030670 
	C725.886841,437.385986 725.923584,439.771362 725.732788,442.756714 
	C725.624939,443.890137 725.744629,444.423615 725.864258,444.957062 
z"/>
<path fill="#F2E2CA" opacity="1.000000" stroke="none" 
	d="
M554.548462,555.984253 
	C558.502747,563.138306 558.403503,571.003479 557.609619,578.903259 
	C557.369690,581.290710 556.506714,583.615479 555.505310,585.945129 
	C556.750061,575.966309 556.756104,566.057678 554.548462,555.984253 
z"/>
<path fill="#F2E2CA" opacity="1.000000" stroke="none" 
	d="
M542.861938,529.256104 
	C548.257751,535.106323 552.770569,541.633850 553.376099,550.398926 
	C549.997498,543.635803 546.340332,536.617798 542.861938,529.256104 
z"/>
<path fill="#9C5518" opacity="1.000000" stroke="none" 
	d="
M722.377136,768.808105 
	C722.999329,765.773010 724.000610,762.807312 725.000977,759.425659 
	C725.132751,752.900940 725.265564,746.792175 725.646973,740.359009 
	C725.906860,749.313843 725.918152,758.592957 725.880127,768.323364 
	C724.805908,768.808899 723.781067,768.843201 722.377136,768.808105 
z"/>
<path fill="#F2E2CA" opacity="1.000000" stroke="none" 
	d="
M515.020630,497.893677 
	C519.299500,501.685547 523.578369,505.477448 527.957153,509.590027 
	C525.223511,507.704620 522.390015,505.498566 519.243408,503.162018 
	C518.930420,503.031555 518.818970,502.975586 518.689392,502.696503 
	C517.380066,500.909515 516.200378,499.401581 515.020630,497.893677 
z"/>
<path fill="#B25709" opacity="1.000000" stroke="none" 
	d="
M725.458862,457.030212 
	C725.890076,459.388000 725.925903,461.775421 725.910889,464.610596 
	C725.320435,466.496735 724.780823,467.935089 724.241211,469.373474 
	C723.997437,465.170197 720.585144,460.772278 725.458862,457.030212 
z"/>
<path fill="#B25709" opacity="1.000000" stroke="none" 
	d="
M725.456360,363.029419 
	C725.773132,366.400574 725.697327,369.800995 725.524414,373.587036 
	C722.109741,371.629913 721.923279,366.030640 725.456360,363.029419 
z"/>
<path fill="#F2E2CA" opacity="1.000000" stroke="none" 
	d="
M348.904968,732.771790 
	C348.204681,733.010010 347.506744,732.876648 346.459351,732.652710 
	C343.304199,729.900024 340.498474,727.237915 337.865906,724.244446 
	C341.661835,726.742126 345.284607,729.571167 348.904968,732.771790 
z"/>
<path fill="#B25709" opacity="1.000000" stroke="none" 
	d="
M722.999390,328.418457 
	C723.755310,327.674164 724.511841,327.356140 725.591919,327.043579 
	C725.922974,329.406250 725.930359,331.763550 725.882629,334.561096 
	C721.242920,334.621826 723.627319,331.041718 722.999390,328.418457 
z"/>
<path fill="#B25709" opacity="1.000000" stroke="none" 
	d="
M725.474060,393.027100 
	C725.895935,395.372040 725.931030,397.744354 725.912109,400.558380 
	C722.080627,399.254120 721.775513,396.108856 725.474060,393.027100 
z"/>
<path fill="#F2E2CA" opacity="1.000000" stroke="none" 
	d="
M534.769836,518.201111 
	C537.055420,520.371826 539.039307,522.811829 541.058716,525.614990 
	C538.885498,523.475525 536.676819,520.973022 534.769836,518.201111 
z"/>
<path fill="#F2E2CA" opacity="1.000000" stroke="none" 
	d="
M333.818695,715.808594 
	C335.184265,718.114746 336.607635,720.676575 338.063110,723.608582 
	C336.688995,721.340576 335.282715,718.702393 333.818695,715.808594 
z"/>
<path fill="#F2E2CA" opacity="1.000000" stroke="none" 
	d="
M527.739990,510.167419 
	C530.070312,512.050232 532.051392,514.157532 534.061157,516.617126 
	C531.856873,514.776917 529.623779,512.584412 527.739990,510.167419 
z"/>
<path fill="#B25709" opacity="1.000000" stroke="none" 
	d="
M725.487305,384.022278 
	C725.776489,385.427948 725.696655,386.855682 725.526611,388.622620 
	C721.963989,387.540558 721.956482,385.894989 725.487305,384.022278 
z"/>
<path fill="#A85A15" opacity="1.000000" stroke="none" 
	d="
M308.981903,740.682983 
	C307.860413,739.090393 306.749969,737.093506 305.583801,734.762878 
	C309.533813,734.690369 308.484009,737.946167 308.981903,740.682983 
z"/>
<path fill="#B25709" opacity="1.000000" stroke="none" 
	d="
M725.507874,502.020386 
	C725.903625,503.068542 725.939392,504.135864 725.922241,505.600952 
	C724.955139,505.373840 724.040894,504.748962 723.126648,504.124054 
	C723.800415,503.429230 724.474121,502.734375 725.507874,502.020386 
z"/>
<path fill="#B25709" opacity="1.000000" stroke="none" 
	d="
M723.519409,646.224915 
	C723.574463,645.546936 723.823792,645.065735 724.073120,644.584534 
	C724.290344,644.788574 724.721497,645.127991 724.691345,645.175598 
	C724.410706,645.619568 724.050720,646.013367 723.519409,646.224915 
z"/>
<path fill="#F2E2CA" opacity="1.000000" stroke="none" 
	d="
M540.886475,526.260376 
	C541.697571,526.707947 542.362915,527.506531 543.062866,528.643433 
	C542.311890,528.191650 541.526306,527.401489 540.886475,526.260376 
z"/>
<path fill="#B25709" opacity="1.000000" stroke="none" 
	d="
M411.043945,668.474915 
	C411.181305,668.818176 411.104248,669.158325 411.027161,669.498413 
	C410.961304,669.156189 410.895416,668.813965 411.043945,668.474915 
z"/>
<path fill="#F2E2CA" opacity="1.000000" stroke="none" 
	d="
M533.924561,517.296021 
	C534.328430,517.078430 534.638489,517.251892 535.020142,517.691895 
	C534.671387,517.867920 534.251099,517.777588 533.924561,517.296021 
z"/>
<path fill="#AF5608" opacity="1.000000" stroke="none" 
	d="
M547.564697,279.995483 
	C547.458679,281.189056 546.468689,282.386200 546.483704,283.570587 
	C546.501465,284.967773 546.975342,286.997192 547.969055,287.635651 
	C552.750000,290.707306 557.683167,293.576843 562.738647,296.175110 
	C566.679871,298.200714 570.058716,301.863037 575.571167,301.307373 
	C575.994202,302.018921 575.990112,302.425018 575.985962,302.831146 
	C568.567322,304.543915 561.196167,306.507538 553.720886,307.920807 
	C533.978455,311.653229 514.368713,315.701477 496.243927,324.922394 
	C479.777588,333.299561 465.328400,344.130280 455.010040,359.647949 
	C447.256836,371.307861 443.232391,384.429199 443.158630,398.448456 
	C443.106537,408.343872 446.104889,417.759949 449.628357,427.685303 
	C451.715668,432.381561 453.546753,436.489441 455.874908,440.293091 
	C457.185974,442.434998 459.316833,444.075134 461.078369,445.941315 
	C461.078369,445.941315 461.004028,445.997620 460.760406,446.268860 
	C461.705566,447.676971 462.894348,448.813843 464.083130,449.950714 
	C464.083130,449.950714 464.007660,449.995544 463.759674,450.253174 
	C465.039307,451.998413 466.566895,453.485962 468.094513,454.973541 
	C468.094513,454.973541 468.020294,454.978394 467.925232,455.333862 
	C468.250427,455.778870 468.670715,455.868439 469.090973,455.958008 
	C469.090973,455.958008 469.009705,455.997162 468.743805,456.231689 
	C470.605164,458.680206 472.732391,460.894165 474.859650,463.108124 
	C478.145966,466.057709 481.432251,469.007324 485.172668,472.320557 
	C486.095245,473.150024 486.563751,473.615814 487.032288,474.081604 
	C487.032288,474.081573 486.937317,474.023560 486.998230,474.354614 
	C488.061554,475.101440 489.063965,475.517242 490.066406,475.933014 
	C490.066406,475.933014 490.001221,475.997162 489.779938,476.289734 
	C490.403748,477.045349 491.248840,477.508331 492.093964,477.971313 
	C492.093964,477.971313 492.021545,477.977875 491.917389,478.303192 
	C492.240662,478.746552 492.668091,478.864594 493.095520,478.982605 
	C493.095520,478.982635 493.023224,478.981903 492.894348,479.251831 
	C493.449646,480.382050 494.133789,481.242401 494.612793,482.327759 
	C494.270874,482.702728 494.134125,482.852692 493.997406,483.002686 
	C488.931854,484.605011 486.323608,480.338989 483.388397,477.933136 
	C477.981598,473.501373 473.172241,468.311890 468.334412,463.228302 
	C466.279449,461.069000 465.092499,458.057037 462.961731,456.002167 
	C458.935730,452.119629 456.203033,447.120361 452.669922,443.221832 
	C447.483368,437.498840 446.363373,431.449371 445.605133,424.667786 
	C445.560181,424.265778 445.006927,423.920624 444.456665,423.275055 
	C443.526825,424.019653 442.645569,424.725311 442.182220,425.096375 
	C440.837891,421.350311 439.476685,417.773285 438.305450,414.135101 
	C438.027008,413.270203 438.095123,412.057983 438.494446,411.247162 
	C442.382385,403.352814 440.840881,394.914795 440.845337,386.686951 
	C440.846771,384.034271 439.522491,381.251587 438.330414,378.754822 
	C435.936462,373.740570 438.823242,370.496704 442.326660,368.354950 
	C446.799622,365.620483 449.329224,362.204895 450.121307,357.093994 
	C450.300385,355.938354 451.767212,354.495209 452.956543,354.073456 
	C456.713745,352.741119 458.267670,350.519897 457.404877,346.515045 
	C457.151855,345.340607 457.313721,343.780457 457.916504,342.775696 
	C459.486816,340.158112 459.241058,338.583954 456.179749,337.484253 
	C453.446899,336.502502 453.555267,333.708527 455.459106,332.962341 
	C458.921722,331.605194 463.322357,330.059662 466.510284,331.102722 
	C473.922333,333.528076 479.730469,331.915039 485.343201,327.200562 
	C487.855713,325.090179 490.805176,323.473877 493.175415,321.230865 
	C494.411926,320.060791 495.935608,317.338287 495.415070,316.485138 
	C493.021332,312.561920 491.027374,308.171173 486.020264,306.419891 
	C481.191528,304.730927 476.502686,302.587006 471.898041,300.343964 
	C470.395233,299.611877 469.350006,297.940399 468.044739,296.351654 
	C471.396027,294.788818 474.745117,293.386108 478.213135,292.402985 
	C482.817535,291.097717 487.514709,290.119781 492.586426,289.404724 
	C493.523987,296.777496 495.675323,298.933685 502.263885,301.437683 
	C505.368561,302.617584 507.824585,305.446503 510.668030,307.391479 
	C512.616211,308.724030 514.603394,310.147003 516.784973,310.964172 
	C524.555542,313.874817 530.905701,307.421326 538.371704,307.296692 
	C540.261841,307.265198 543.948792,303.185913 543.576355,301.912231 
	C542.730835,299.020996 540.342529,295.401093 537.730591,294.473724 
	C533.468201,292.960327 530.173706,291.667725 530.540161,286.004211 
	C524.825317,290.135864 522.598083,284.455414 518.995605,282.994232 
	C523.144104,282.442352 527.282959,281.797516 531.443604,281.362122 
	C536.661499,280.816071 541.897400,280.441803 547.564697,279.995483 
z"/>
<path fill="#B25709" opacity="1.000000" stroke="none" 
	d="
M518.636475,282.985657 
	C522.598083,284.455414 524.825317,290.135864 530.540161,286.004211 
	C530.173706,291.667725 533.468201,292.960327 537.730591,294.473724 
	C540.342529,295.401093 542.730835,299.020996 543.576355,301.912231 
	C543.948792,303.185913 540.261841,307.265198 538.371704,307.296692 
	C530.905701,307.421326 524.555542,313.874817 516.784973,310.964172 
	C514.603394,310.147003 512.616211,308.724030 510.668030,307.391479 
	C507.824585,305.446503 505.368561,302.617584 502.263885,301.437683 
	C495.675323,298.933685 493.523987,296.777496 493.001038,289.402374 
	C498.605835,287.260193 504.210449,285.523926 509.916931,283.441620 
	C510.415314,282.953278 510.811768,282.811005 511.682129,282.914429 
	C512.778625,282.826599 513.401245,282.493042 514.023865,282.159454 
	C514.423889,282.020386 514.823853,281.881317 515.542480,281.740906 
	C516.666565,282.152100 517.471924,282.564606 518.636475,282.985657 
z"/>
<path fill="#AF5608" opacity="1.000000" stroke="none" 
	d="
M659.851074,664.657227 
	C659.139709,665.140015 658.267700,665.299133 657.200562,664.908081 
	C657.017517,663.929749 657.029541,663.501648 657.041565,663.073547 
	C657.396301,662.897217 657.750977,662.720886 658.385132,662.461182 
	C659.006531,663.029724 659.348511,663.681641 659.851074,664.657227 
z"/>
<path fill="#AF5608" opacity="1.000000" stroke="none" 
	d="
M696.030029,607.329834 
	C696.517395,607.315674 696.993591,607.636475 697.469788,607.957214 
	C697.177307,608.271851 696.884766,608.586548 696.315796,608.953003 
	C696.032593,608.558167 696.025757,608.111450 696.030029,607.329834 
z"/>
<path fill="#AF5608" opacity="1.000000" stroke="none" 
	d="
M725.909424,444.639709 
	C725.744629,444.423615 725.624939,443.890137 725.683594,443.201782 
	C725.892822,443.472046 725.923645,443.897186 725.909424,444.639709 
z"/>
<path fill="#D4B187" opacity="1.000000" stroke="none" 
	d="
M556.853394,735.429199 
	C557.069763,735.543823 556.626953,735.754395 556.626953,735.754395 
	C556.626953,735.754395 556.137024,735.735596 555.920044,735.621521 
	C555.983765,735.294739 556.295105,735.230408 556.853394,735.429199 
z"/>
<path fill="#C29361" opacity="1.000000" stroke="none" 
	d="
M668.277649,325.573547 
	C683.326660,325.273651 698.745056,325.159943 714.622803,325.172180 
	C710.002136,325.496490 704.922974,325.836792 699.842102,325.863464 
	C689.444214,325.918091 679.045471,325.804199 668.277649,325.573547 
z"/>
<path fill="#C29361" opacity="1.000000" stroke="none" 
	d="
M722.011597,325.432556 
	C722.098877,325.250305 722.307373,325.204834 722.816406,325.269775 
	C722.788879,325.443268 722.460876,325.506287 722.011597,325.432556 
z"/>
<path fill="#A85A15" opacity="1.000000" stroke="none" 
	d="
M513.734131,282.121033 
	C513.401245,282.493042 512.778625,282.826599 511.999878,282.915100 
	C512.377319,282.474213 512.910889,282.278412 513.734131,282.121033 
z"/>
<path fill="#9C5518" opacity="1.000000" stroke="none" 
	d="
M656.661865,663.053162 
	C657.029541,663.501648 657.017517,663.929749 657.001526,664.678955 
	C655.144653,664.981384 653.291748,664.962708 650.963989,664.921875 
	C652.420227,664.277405 654.351196,663.655090 656.661865,663.053162 
z"/>
<path fill="#AF5608" opacity="1.000000" stroke="none" 
	d="
M515.012695,497.936707 
	C516.200378,499.401581 517.380066,500.909515 518.627686,502.705322 
	C515.186462,505.694153 512.856812,504.222260 510.599152,501.056580 
	C509.615234,499.676880 507.643250,499.044403 506.341522,497.834290 
	C505.437012,496.993408 504.957703,495.711090 504.203033,494.689056 
	C503.210938,493.345520 501.870850,490.800262 501.136322,490.953735 
	C494.698639,492.298737 495.449799,487.062897 494.050415,483.373535 
	C494.134125,482.852692 494.270874,482.702728 494.975983,482.469482 
	C496.383057,482.564484 497.221771,482.742706 498.060516,482.920929 
	C498.060516,482.920929 497.997711,482.992462 497.847412,483.325195 
	C498.163086,483.763031 498.629120,483.868164 499.095123,483.973297 
	C499.095123,483.973297 499.023834,483.983185 498.846924,484.274017 
	C501.140106,486.357574 503.610168,488.150269 506.080231,489.942993 
	C506.080231,489.942993 506.012939,489.979279 505.896301,490.309937 
	C506.218048,490.753784 506.656403,490.866974 507.094757,490.980164 
	C507.094757,490.980164 507.021271,490.980377 506.906738,491.299927 
	C508.552216,492.723663 510.312195,493.827850 512.072205,494.932037 
	C512.072205,494.932037 512.005493,494.983551 511.870483,495.328491 
	C512.187378,495.773193 512.639343,495.872955 513.091309,495.972717 
	C513.091309,495.972748 513.020691,495.984222 512.831482,496.285736 
	C513.458740,497.054993 514.275146,497.522766 515.091614,497.990509 
	C515.091614,497.990509 515.004822,497.979736 515.012695,497.936707 
z"/>
<path fill="#9C5518" opacity="1.000000" stroke="none" 
	d="
M601.139648,298.991669 
	C601.423950,300.754974 601.956482,302.518158 601.957214,304.281555 
	C601.997131,405.318085 602.000061,506.354645 601.942810,607.391174 
	C601.941589,609.443909 601.189453,611.496277 600.479492,613.784668 
	C600.090820,612.562134 600.010437,611.103699 600.265137,608.981323 
	C600.730713,604.327454 600.972351,600.337708 600.974487,596.347778 
	C600.999817,549.536133 600.969116,502.724457 600.993469,455.912811 
	C601.020630,403.605774 601.089111,351.298706 601.139648,298.991669 
z"/>
<path fill="#D4B187" opacity="1.000000" stroke="none" 
	d="
M601.084534,298.751770 
	C601.089111,351.298706 601.020630,403.605774 600.993469,455.912811 
	C600.969116,502.724457 600.999817,549.536133 600.974487,596.347778 
	C600.972351,600.337708 600.730713,604.327454 600.367798,608.660278 
	C600.087219,529.584106 600.037170,450.164917 599.992615,370.745758 
	C599.979980,348.268494 599.973572,325.791260 599.994324,303.313995 
	C599.996521,300.948425 600.456604,298.387238 596.475708,298.834991 
	C597.850586,298.443146 599.424072,298.231842 600.997620,298.020538 
	C600.997620,298.020538 601.029419,298.511841 601.084534,298.751770 
z"/>
<path fill="#9C5518" opacity="1.000000" stroke="none" 
	d="
M599.633606,616.181152 
	C600.123474,617.676392 600.783691,619.500610 600.388306,621.056580 
	C598.036499,630.312622 595.437561,639.505737 592.929260,648.722107 
	C592.497620,650.308044 592.102722,651.904053 592.049438,652.109924 
	C588.548706,654.598633 585.908752,656.475403 583.047852,658.136353 
	C586.642395,650.340149 590.918762,642.948303 594.123352,635.117920 
	C596.560425,629.163025 597.635315,622.650635 599.633606,616.181152 
z"/>
<path fill="#9C5518" opacity="1.000000" stroke="none" 
	d="
M600.895752,297.645477 
	C599.424072,298.231842 597.850586,298.443146 596.063538,299.015442 
	C589.502014,300.575287 583.154053,301.774200 576.395996,302.902130 
	C575.990112,302.425018 575.994202,302.018921 575.999146,301.308228 
	C581.971436,299.408875 587.895264,297.580994 593.940063,296.344971 
	C596.072449,295.908966 598.500671,296.920044 600.895752,297.645477 
z"/>
<path fill="#F2E2CA" opacity="1.000000" stroke="none" 
	d="
M461.056213,445.578430 
	C459.316833,444.075134 457.185974,442.434998 455.874908,440.293091 
	C453.546753,436.489441 451.715668,432.381561 449.774780,427.999390 
	C453.593323,433.470428 457.313660,439.342987 461.056213,445.578430 
z"/>
<path fill="#F2E2CA" opacity="1.000000" stroke="none" 
	d="
M474.925629,462.739319 
	C472.732391,460.894165 470.605164,458.680206 468.775146,456.199280 
	C471.045441,458.078400 473.018524,460.224487 474.925629,462.739319 
z"/>
<path fill="#F2E2CA" opacity="1.000000" stroke="none" 
	d="
M505.987976,489.617279 
	C503.610168,488.150269 501.140106,486.357574 498.857574,484.239624 
	C501.328644,485.706818 503.612183,487.499207 505.987976,489.617279 
z"/>
<path fill="#F2E2CA" opacity="1.000000" stroke="none" 
	d="
M497.963013,482.598236 
	C497.221771,482.742706 496.383057,482.564484 495.181122,482.244507 
	C494.133789,481.242401 493.449646,480.382050 492.900208,479.216125 
	C494.645081,480.032227 496.255280,481.153870 497.963013,482.598236 
z"/>
<path fill="#E3C89B" opacity="1.000000" stroke="none" 
	d="
M575.952393,667.931274 
	C575.459473,668.068481 574.989380,668.227478 574.227539,668.153931 
	C575.356445,665.983521 576.777039,664.045593 578.750671,662.199585 
	C579.465637,662.447754 579.627502,662.603821 579.637268,663.009155 
	C579.249268,663.784363 579.013428,664.310181 578.777527,664.836060 
	C578.777527,664.836060 578.846558,664.917358 578.610046,664.950073 
	C578.208557,665.307190 578.043579,665.631714 577.878601,665.956177 
	C577.878601,665.956177 577.958679,665.962463 577.689697,665.996094 
	C577.248108,666.343384 577.075500,666.657043 576.902893,666.970703 
	C576.902893,666.970703 576.975159,666.978271 576.715088,667.024780 
	C576.276001,667.373596 576.097046,667.675964 575.918030,667.978271 
	C575.918030,667.978271 575.975098,667.953064 575.952393,667.931274 
z"/>
<path fill="#F2E2CA" opacity="1.000000" stroke="none" 
	d="
M511.968445,494.609985 
	C510.312195,493.827850 508.552216,492.723663 506.909180,491.263275 
	C508.638947,492.034027 510.251801,493.161011 511.968445,494.609985 
z"/>
<path fill="#F2E2CA" opacity="1.000000" stroke="none" 
	d="
M468.063416,454.627167 
	C466.566895,453.485962 465.039307,451.998413 463.786926,450.218781 
	C465.385559,451.378082 466.708954,452.829437 468.063416,454.627167 
z"/>
<path fill="#F2E2CA" opacity="1.000000" stroke="none" 
	d="
M464.055084,449.610321 
	C462.894348,448.813843 461.705566,447.676971 460.790009,446.232849 
	C462.051147,447.040375 463.039093,448.155151 464.055084,449.610321 
z"/>
<path fill="#F2E2CA" opacity="1.000000" stroke="none" 
	d="
M489.956116,475.615051 
	C489.063965,475.517242 488.061554,475.101440 487.022156,474.304382 
	C487.938751,474.381104 488.892273,474.839081 489.956116,475.615051 
z"/>
<path fill="#F2E2CA" opacity="1.000000" stroke="none" 
	d="
M492.061310,477.608673 
	C491.248840,477.508331 490.403748,477.045349 489.805603,476.251831 
	C490.711243,476.362915 491.369934,476.804474 492.061310,477.608673 
z"/>
<path fill="#F2E2CA" opacity="1.000000" stroke="none" 
	d="
M515.052368,497.626038 
	C514.275146,497.522766 513.458740,497.054993 512.842712,496.251770 
	C513.699829,496.364716 514.356445,496.813141 515.052368,497.626038 
z"/>
<path fill="#F2E2CA" opacity="1.000000" stroke="none" 
	d="
M486.890442,473.876587 
	C486.563751,473.615814 486.095245,473.150024 485.505890,472.465698 
	C485.839569,472.721954 486.294098,473.196777 486.890442,473.876587 
z"/>
<path fill="#E3C89B" opacity="1.000000" stroke="none" 
	d="
M580.648315,659.987549 
	C581.043457,660.199829 581.172852,660.465881 581.237549,660.746704 
	C581.268555,660.881104 581.177124,661.043823 580.833618,661.634888 
	C580.280457,662.304016 580.034912,662.531921 579.789368,662.759827 
	C579.627502,662.603821 579.465637,662.447754 579.060852,662.057617 
	C579.330566,661.231567 579.843262,660.639465 580.648315,659.987549 
z"/>
<path fill="#F2E2CA" opacity="1.000000" stroke="none" 
	d="
M469.027527,455.686462 
	C468.670715,455.868439 468.250427,455.778870 467.925415,455.296692 
	C468.335114,455.074310 468.649597,455.244598 469.027527,455.686462 
z"/>
<path fill="#E3C89B" opacity="1.000000" stroke="none" 
	d="
M569.679199,671.959656 
	C569.841736,672.306885 569.726135,672.701904 569.261108,673.030640 
	C569.074890,672.645447 569.238037,672.326416 569.679199,671.959656 
z"/>
<path fill="#F2E2CA" opacity="1.000000" stroke="none" 
	d="
M499.029388,483.705505 
	C498.629120,483.868164 498.163086,483.763031 497.869934,483.283142 
	C498.349731,483.084778 498.656677,483.261261 499.029388,483.705505 
z"/>
<path fill="#E3C89B" opacity="1.000000" stroke="none" 
	d="
M581.834595,658.827576 
	C582.160400,658.928467 582.205933,659.151367 582.180298,659.756897 
	C582.109131,660.139587 582.102844,660.328003 582.102844,660.328003 
	C581.879700,660.346252 581.656555,660.364441 581.186462,660.155151 
	C581.144409,659.601624 581.349365,659.275574 581.834595,658.827576 
z"/>
<path fill="#F2E2CA" opacity="1.000000" stroke="none" 
	d="
M513.023560,495.706055 
	C512.639343,495.872955 512.187378,495.773193 511.886292,495.289429 
	C512.343384,495.083466 512.649536,495.261444 513.023560,495.706055 
z"/>
<path fill="#F2E2CA" opacity="1.000000" stroke="none" 
	d="
M507.032288,490.707489 
	C506.656403,490.866974 506.218048,490.753784 505.906372,490.273071 
	C506.345306,490.081970 506.657562,490.258392 507.032288,490.707489 
z"/>
<path fill="#E3C89B" opacity="1.000000" stroke="none" 
	d="
M573.670898,667.958130 
	C573.846375,668.344177 573.746460,668.771423 573.280396,669.070496 
	C573.074768,668.627991 573.235168,668.313660 573.670898,667.958130 
z"/>
<path fill="#E3C89B" opacity="1.000000" stroke="none" 
	d="
M572.670654,668.961182 
	C572.843811,669.337524 572.744080,669.760864 572.280029,670.065552 
	C572.076355,669.634033 572.237061,669.321106 572.670654,668.961182 
z"/>
<path fill="#E3C89B" opacity="1.000000" stroke="none" 
	d="
M571.673096,669.964111 
	C571.844849,670.329529 571.743347,670.743225 571.278259,671.055176 
	C571.076355,670.639771 571.238098,670.326111 571.673096,669.964111 
z"/>
<path fill="#E3C89B" opacity="1.000000" stroke="none" 
	d="
M570.681396,670.966370 
	C570.842285,671.315552 570.730164,671.716614 570.264893,672.037659 
	C570.077271,671.644531 570.242859,671.331360 570.681396,670.966370 
z"/>
<path fill="#E3C89B" opacity="1.000000" stroke="none" 
	d="
M568.627075,673.030029 
	C568.835693,673.335938 568.700745,673.761047 568.240112,674.351074 
	C568.037415,674.060425 568.160461,673.604858 568.627075,673.030029 
z"/>
<path fill="#F2E2CA" opacity="1.000000" stroke="none" 
	d="
M493.033264,478.707642 
	C492.668091,478.864594 492.240662,478.746552 491.918884,478.266846 
	C492.339996,478.081024 492.655487,478.256866 493.033264,478.707642 
z"/>
<path fill="#9C5518" opacity="1.000000" stroke="none" 
	d="
M579.637268,663.009155 
	C580.034912,662.531921 580.280457,662.304016 580.755371,661.971924 
	C580.493469,662.849243 580.002319,663.830750 579.144287,664.824158 
	C579.013428,664.310181 579.249268,663.784363 579.637268,663.009155 
z"/>
<path fill="#9C5518" opacity="1.000000" stroke="none" 
	d="
M582.193604,660.097839 
	C582.278137,660.056091 582.570862,660.379944 582.570862,660.379944 
	C582.570862,660.379944 582.245544,660.500732 582.174194,660.414368 
	C582.102844,660.328003 582.109131,660.139587 582.193604,660.097839 
z"/>
<path fill="#9C5518" opacity="1.000000" stroke="none" 
	d="
M578.116333,665.837524 
	C578.043579,665.631714 578.208557,665.307190 578.645935,664.910583 
	C578.730225,665.131897 578.542114,665.425354 578.116333,665.837524 
z"/>
<path fill="#9C5518" opacity="1.000000" stroke="none" 
	d="
M577.135742,666.851318 
	C577.075500,666.657043 577.248108,666.343384 577.688110,665.955933 
	C577.759827,666.165405 577.564270,666.448669 577.135742,666.851318 
z"/>
<path fill="#9C5518" opacity="1.000000" stroke="none" 
	d="
M576.148193,667.859253 
	C576.097046,667.675964 576.276001,667.373596 576.712646,666.988525 
	C576.773010,667.183899 576.575684,667.462097 576.148193,667.859253 
z"/>
</svg>
